<?xml version="1.0" encoding="UTF-8"?>
<svg id="Laag_1" data-name="Laag 1" xmlns="http://www.w3.org/2000/svg" viewBox="0 0 802.97 311.63">
  <defs>
    <style>
      .cls-1 {
        fill: #dc9901;
      }

      .cls-2, .cls-3, .cls-4 {
        fill: #fff;
      }

      .cls-2, .cls-4 {
        stroke: #fff;
        stroke-miterlimit: 10;
      }

      .cls-5 {
        fill: #3b5a9a;
      }

      .cls-6 {
        fill: #60993b;
      }

      .cls-4 {
        stroke-width: .95px;
      }

      .cls-7 {
        fill: #b63e73;
      }

      .cls-8 {
        fill: #2d2d29;
      }

      .cls-9 {
        fill: #ee731e;
      }

      .cls-10 {
        fill: #066053;
      }

      .cls-11 {
        fill: #b71918;
      }
    </style>
  </defs>
  <g>
    <circle class="cls-6" cx="285.7" cy="155.13" r="33.83"/>
    <g>
      <path class="cls-2" d="M276.11,137.68c2.2,0,3.86,4.72,4.98,14.17.06.9.1,2.03.1,3.4v.41c0,.27-.02.54-.07.81.05.07.07.34.07.81v.1c0,.47-.02.75-.07.81.05.27.07.44.07.51,0,7.28-1.02,11.82-3.06,13.61-.83.34-1.4.51-1.73.51h-.78c-2.64-.66-4.27-3.97-4.88-9.93l-.29-4.16c0-9.61,1.17-16.33,3.52-20.13.78-.61,1.49-.91,2.14-.91ZM272.64,158.39c0,3.77.48,7.08,1.43,9.9.79,1.66,1.41,2.49,1.85,2.49h.1c.97,0,1.62-.82,1.94-2.46.7-1.73,1.04-5.44,1.04-11.15v-2.03c0-3.94-.67-8.47-2.02-13.58-.44-1.02-.76-1.6-.97-1.75-.36.14-.58.36-.68.66-1.8,3.98-2.7,9.95-2.7,17.93Z"/>
      <path class="cls-2" d="M287.41,137.45c.68,0,2.35,4.76,5.01,14.27.37,2.17,1.9,7.51,4.57,16.02h-.8v-.36c-.37-8.23-.56-12.85-.56-13.86,0-.3.04-1.34.12-3.1-.02-.19-.02-.59-.02-1.22.13-1.34.19-2.4.19-3.17v-7.24c.08-.71.52-1.07,1.31-1.07l1.02.56c-.19,4.01-.29,6.98-.29,8.91v2.87c0,5.89.18,13.58.53,23.08l-.97.51c-.81,0-3.36-7.63-7.66-22.9l-2.55-9.09.9,1.52.07-1.47c.11,1.41.17,2.52.17,3.35l.02.86c-.13,3.76-.19,6.39-.19,7.9,0,7.57.29,13.98.88,19.25h-1.22c-.76,0-1.14-.36-1.14-1.07-.37-5.91-.56-11.2-.56-15.87v-17.62c.11-.71.5-1.07,1.17-1.07Z"/>
    </g>
  </g>
  <g>
    <circle class="cls-7" cx="158.84" cy="155.13" r="33.83"/>
    <g>
      <path class="cls-2" d="M144.58,139.16c2.21,0,3.88,4.54,5,13.62.06.86.1,1.95.1,3.27v.39c0,.26-.02.52-.07.78.05.07.07.33.07.78v.1c0,.46-.02.72-.07.78.05.26.07.42.07.49,0,7-1.03,11.36-3.08,13.09-.83.33-1.41.49-1.73.49h-.78c-2.65-.63-4.29-3.82-4.91-9.55l-.29-4c0-9.24,1.18-15.7,3.54-19.36.78-.59,1.5-.88,2.15-.88ZM141.09,159.08c0,3.63.48,6.8,1.44,9.52.8,1.6,1.42,2.39,1.86,2.39h.1c.98,0,1.63-.79,1.95-2.37.7-1.66,1.05-5.23,1.05-10.72v-1.95c0-3.79-.68-8.15-2.03-13.06-.44-.98-.77-1.54-.98-1.68-.36.13-.59.34-.68.63-1.81,3.83-2.71,9.57-2.71,17.24Z"/>
      <path class="cls-2" d="M156.79,139.52c2.65.13,4.72.2,6.2.2l.44.66c0,.86-.41,1.29-1.22,1.29-1.68-.06-3.31-.1-4.91-.1l.46,11.72v.07l.05.63c.6-.08,1.39-.12,2.37-.12h2.54c.49,0,.8.42.93,1.25l-.88.71h-2.98c-1.22,0-1.83-.03-1.83-.1v1.07c0,.94.06,4.85.2,11.72v1.05l.1.59c0,.41-.02.61-.05.61l.05.46v1.1c0,.26-.24.52-.73.78h-.46c-.36,0-.69-.25-1-.76l-.37-20.14-.42-.98.2.39c-.26-5.16-.39-9.01-.39-11.55.52-.37,1.09-.56,1.71-.56Z"/>
      <path class="cls-2" d="M170.49,139.52c2.65.13,4.72.2,6.2.2l.44.66c0,.86-.41,1.29-1.22,1.29-1.68-.06-3.31-.1-4.91-.1l.46,11.72v.07l.05.63c.6-.08,1.39-.12,2.37-.12h2.54c.49,0,.8.42.93,1.25l-.88.71h-2.98c-1.22,0-1.83-.03-1.83-.1v1.07c0,.94.06,4.85.2,11.72v1.05l.1.59c0,.41-.02.61-.05.61l.05.46v1.1c0,.26-.24.52-.73.78h-.46c-.36,0-.69-.25-1-.76l-.37-20.14-.42-.98.2.39c-.26-5.16-.39-9.01-.39-11.55.52-.37,1.09-.56,1.71-.56Z"/>
    </g>
  </g>
  <g>
    <circle class="cls-7" cx="33.83" cy="277.8" r="33.83"/>
    <g>
      <path class="cls-2" d="M13.58,260.48c.76.24,3.03,5.48,6.79,15.7h-.81c0-.42,1.66-5.45,4.98-15.09h1.17l.44.85.02,1.07c-.18,5.83-.27,10.75-.27,14.77,0,1.55.29,7.23.88,17.04l-1.05.51c-.88,0-1.51-5.47-1.9-16.41v-11.45h.81c-2.31,7.18-3.72,10.97-4.22,11.38-1.04-.06-3.07-4.34-6.08-12.82h.76v-.2l1.44,28.39-1,.54c-.91,0-1.37-.36-1.37-1.07-.57-17.01-1.15-27.89-1.73-32.64l1.15-.59Z"/>
      <path class="cls-2" d="M33.25,261.16h.39c.86,0,1.29,1.89,1.29,5.66v1.27c0,1.29-.2,4.58-.59,9.89,0,.21.03.45.1.71-.07,3.43-.1,6.15-.1,8.15v6.35c0,.1.06.42.2.95-.13.8-.46,1.2-1,1.2h-.39c-.67,0-1-1.04-1-3.12,0-11.31.2-19.1.59-23.36v-2.71c0-1.5-.1-2.86-.29-4.08,0-.28.27-.58.81-.9Z"/>
      <path class="cls-2" d="M51.66,260.77c.37,0,.67.23.9.68v.42c-.65,4.25-1.42,9.81-2.32,16.7,2.1,4.05,3.84,7.9,5.22,11.55l2.08,4.15v.2c0,.26-.27.55-.81.88h-.29c-.88,0-1.38-.48-1.49-1.44-.98-1.71-2.39-4.93-4.25-9.67-.1-.02-.67-1.16-1.71-3.44h.73c-.2,1.07-.91,4.16-2.15,9.25-.39,2.29-.85,3.44-1.39,3.44h-.49c-.34,0-.68-.27-1.03-.81,2.16-8.74,3.25-13.39,3.25-13.94-3-6.12-5.31-11.37-6.93-15.75v-.39l.76-.56h.44c.57,0,1.58,1.94,3.03,5.81l3.93,8.45c-.46,0-.38-2.65.24-7.96.52-3.92.95-6.45,1.29-7.57h.98Z"/>
    </g>
  </g>
  <g>
    <circle class="cls-9" cx="540.71" cy="33.83" r="33.83"/>
    <g>
      <path class="cls-3" d="M527.9,51.96c-1.26,0-2.58-.13-3.69-.78-1.58-.91-2.72-2.8-2.16-4.63.63-2.52,2.25-4.62,3.83-6.62,1.5-1.84,2.95-3.71,4.27-5.69,1.18-1.71,2.47-3.42,3.23-5.37.48-1.4.61-2.89.68-4.36.16-2.15.14-4.3.21-6.46.16-2.88-1.13-2.53-2.66-4.25-.78-.87-.72-2.31.24-3.02,1.67-1.06,3.88-.92,5.77-1.11,2.18-.17,4.39.09,6.45.83-1.88.08-3.78.27-5.65.37-1.15.16-7.77-.07-5.75,2.26,1.26,1.19,2.51,1.5,2.77,3.51.19,2.24-.07,4.5-.11,6.74-.11,2.35-.21,4.81-1.27,6.96-1.32,2.49-3.07,4.73-4.68,7.04-1.4,1.93-3.02,3.69-4.38,5.65-1.68,2.49-3.33,5.76.38,7.34,1.16.41,2.4.33,3.61.34,1.62-.01,3.24-.02,4.86-.07,5.29.01,10.6-.17,15.86.41-3.92,1.06-8.07.69-12.1.72-3.24,0-6.48.17-9.73.15Z"/>
      <path class="cls-3" d="M552.02,52.03c1.26,0,2.58-.13,3.69-.78,1.58-.91,2.72-2.8,2.16-4.63-.63-2.52-2.25-4.62-3.83-6.62-1.5-1.84-2.95-3.71-4.27-5.69-1.18-1.71-2.47-3.42-3.23-5.37-.48-1.4-.61-2.89-.68-4.36-.16-2.15-.14-4.3-.21-6.46-.16-2.88,1.13-2.53,2.66-4.25.78-.87.72-2.31-.24-3.02-1.67-1.06-3.88-.92-5.77-1.11-2.18-.17-4.39.09-6.45.83,1.88.08,3.78.27,5.65.37,1.15.16,7.77-.07,5.75,2.26-1.26,1.19-2.51,1.5-2.77,3.51-.19,2.24.07,4.5.11,6.74.11,2.35.21,4.81,1.27,6.96,1.32,2.49,3.07,4.73,4.68,7.04,1.4,1.93,3.02,3.69,4.38,5.65,1.68,2.49,3.33,5.76-.38,7.34-1.16.41-2.4.33-3.61.34-1.62-.01-3.24-.02-4.86-.07-5.29.01-10.6-.17-15.86.41,3.92,1.06,8.07.69,12.1.72,3.24,0,6.48.17,9.73.15Z"/>
      <path class="cls-3" d="M531.07,48.21c-.69-.05-1.4-.06-2.05-.32-1.1-.38-1.87-1.55-1.65-2.72.28-1.39,1.13-2.58,1.86-3.77,1.45-2.24,2.83-4.61,4.59-6.62.28-.34.57-.67.87-.98.51-.55,1.08-1.13,1.87-1.21,1.21-.11,2.43-.11,3.64-.14.75,0,1.49.04,2.23.15.46.08.99.1,1.22.54.22.34.39.72.57,1.08-.34-.26-.83-.98-1.26-.9.01,0,.03,0,.04,0-1.16.1-2.31.29-3.47.37-.98.07-1.98,0-2.95.15-.3.08-.5.38-.73.57-.37.34-.7.72-1.03,1.09-1.42,1.55-2.59,3.3-3.69,5.09-.61,1-1.28,1.98-1.85,3-1.4,2.29-.75,3.44,1.94,3.38,1.58,0,3.15-.12,4.73-.12,1.89-.03,3.78.05,5.66.13,1.55.05,3.17.12,4.7.22.63.07,1.49.06,1.97.25-.85.05-1.67.31-2.5.44-1.4.26-2.83.29-4.25.19-1.89-.08-3.78-.08-5.68-.08-1.6.03-3.2.18-4.79.21Z"/>
      <path class="cls-3" d="M548.84,48.21c.69-.05,1.4-.06,2.05-.32,1.1-.38,1.87-1.55,1.65-2.72-.28-1.39-1.13-2.58-1.86-3.77-1.45-2.24-2.83-4.61-4.59-6.62-.28-.34-.57-.67-.87-.98-.51-.55-1.08-1.13-1.87-1.21-1.21-.11-2.43-.11-3.64-.14-.75,0-1.49.04-2.23.15-.46.08-.99.1-1.22.54-.22.34-.39.72-.57,1.08.34-.26.83-.98,1.26-.9-.01,0-.03,0-.04,0,1.16.1,2.31.29,3.47.37.98.07,1.98,0,2.95.15.3.08.5.38.73.57.37.34.7.72,1.03,1.09,1.42,1.55,2.59,3.3,3.69,5.09.61,1,1.28,1.98,1.85,3,1.4,2.29.75,3.44-1.94,3.38-1.58,0-3.15-.12-4.73-.12-1.89-.03-3.78.05-5.66.13-1.55.05-3.17.12-4.7.22-.63.07-1.49.06-1.97.25.85.05,1.67.31,2.5.44,1.4.26,2.83.29,4.25.19,1.89-.08,3.78-.08,5.68-.08,1.6.03,3.2.18,4.79.21Z"/>
      <path class="cls-3" d="M540.18,42.22c-1.01-.16-1.94-.8-2.45-1.7-.03-.05-.05-.1-.08-.15-.02-.04-.04-.08-.06-.11,0-.01-.01-.03-.02-.04-.04-.1-.08-.2-.12-.3-.07-.22-.13-.44-.16-.67,0-.07-.02-.14-.02-.22,0-.08,0-.17,0-.25,0-.17.02-.35.05-.52.08-.45.23-.89.47-1.27.26-.41.6-.77,1-1.04.4-.27.85-.45,1.32-.54.49-.09.98-.06,1.46.05.99.24,1.83.95,2.27,1.86.44.9.44,1.97.04,2.89-.19.44-.48.82-.82,1.14-.02.02-.04.04-.05.04,0,0,0,0-.01,0,0,0,0,0,0,0-.38.33-.83.58-1.32.72-.31.09-.63.13-.95.13-.19,0-.37-.01-.56-.04ZM540.89,41.01c.1,0,.2-.02.29-.04.1-.02.19-.05.28-.08.09-.03.18-.07.27-.12.09-.05.17-.1.25-.15.07-.05.15-.11.22-.17.02-.02.05-.05.07-.07.05-.05.09-.09.13-.14.06-.07.11-.14.16-.21.05-.08.1-.16.14-.25.04-.09.08-.18.11-.27.03-.08.05-.17.07-.25.02-.1.03-.2.04-.31,0-.1,0-.2,0-.31,0-.1-.02-.19-.04-.29-.02-.1-.05-.19-.08-.29-.04-.09-.07-.19-.12-.28-.04-.08-.09-.16-.15-.24-.05-.08-.11-.15-.17-.22-.06-.07-.13-.14-.2-.2-.07-.06-.15-.12-.22-.17-.08-.05-.16-.1-.25-.14-.09-.04-.18-.08-.27-.11-.09-.03-.18-.05-.27-.07-.1-.02-.2-.03-.31-.04-.1,0-.19,0-.29,0-.1,0-.2.02-.29.04-.1.02-.19.05-.28.08-.09.03-.18.07-.27.12-.09.05-.17.1-.25.15-.08.05-.15.11-.22.17-.07.06-.14.13-.2.2-.06.07-.12.15-.17.22-.05.08-.09.15-.14.24-.04.09-.08.18-.11.27-.03.09-.06.19-.08.29-.02.1-.03.2-.04.3,0,.09,0,.19,0,.28,0,.02,0,.04,0,.07,0,.08.02.15.03.23.02.1.05.2.08.29.03.09.07.18.11.27.05.09.1.17.15.25.06.08.12.15.18.23.06.07.13.14.2.2.07.06.14.11.21.16.08.05.17.1.25.15.08.04.16.07.24.1.1.03.2.06.3.08.09.02.19.03.28.04.1,0,.2,0,.3,0Z"/>
      <path class="cls-3" d="M533.82,44.13c-.27-.07-.52-.18-.76-.33-.19-.12-.37-.28-.51-.45-.19-.22-.32-.46-.43-.73-.09-.23-.14-.49-.15-.74-.01-.25.01-.49.08-.73.14-.51.43-.98.85-1.3.41-.32.92-.52,1.44-.52.16,0,.31.01.47.03.13.02.25.06.38.09.24.08.47.2.67.35.41.31.73.75.88,1.24.15.51.15,1.06-.04,1.56-.19.5-.53.94-.99,1.23-.1.06-.2.12-.3.16-.02.01-.05.02-.07.03,0,0-.01,0-.02,0-.24.1-.49.16-.75.18-.06,0-.12,0-.18,0-.19,0-.39-.02-.58-.07ZM534.42,42.96c.05,0,.1,0,.15-.01.05,0,.1-.02.15-.03.05-.02.11-.03.16-.06.05-.02.09-.04.14-.07.04-.02.08-.05.12-.08.04-.03.08-.07.12-.11.03-.04.07-.07.1-.11.03-.04.06-.09.09-.13.03-.05.05-.09.07-.14.02-.05.04-.1.05-.14.01-.06.02-.11.03-.17,0-.05,0-.1,0-.15,0-.05,0-.11-.01-.16,0-.05-.02-.1-.03-.15-.02-.05-.03-.11-.06-.16-.02-.05-.04-.09-.07-.14-.03-.04-.06-.09-.08-.13-.03-.04-.06-.08-.1-.11-.04-.03-.07-.07-.11-.1-.04-.03-.09-.06-.13-.09-.04-.02-.09-.05-.13-.07-.05-.02-.11-.04-.16-.06-.05-.01-.11-.02-.16-.03-.05,0-.1,0-.16-.01-.05,0-.11,0-.16.01-.05,0-.1.02-.16.03-.05.01-.1.03-.15.05-.05.02-.1.05-.14.07-.04.03-.08.05-.12.08-.04.03-.08.07-.12.1-.04.04-.07.08-.1.12-.03.04-.06.08-.09.13-.03.05-.05.09-.07.14-.02.05-.04.1-.05.15-.01.05-.02.11-.03.16,0,.05,0,.11-.01.16,0,.05,0,.1.01.16,0,.05.02.1.03.15.02.05.03.1.05.15.02.05.04.09.07.14.03.04.05.08.08.12.03.04.06.08.1.11.04.03.07.07.11.1.04.03.09.06.13.09.05.03.09.05.14.07.05.02.1.04.15.05.05.01.11.02.16.03.05,0,.11,0,.16.01Z"/>
      <path class="cls-3" d="M545.2,45.46c-.27-.11-.51-.29-.7-.5-.23-.25-.38-.56-.46-.89,0,0,0-.02,0-.02,0-.02,0-.04-.01-.06,0,0,0-.02,0-.03-.03-.17-.03-.33-.02-.5,0-.05.01-.1.02-.15,0-.02,0-.03.01-.05.04-.2.11-.4.21-.58.25-.47.7-.81,1.21-.95.47-.13,1-.08,1.43.15.13.07.25.14.36.24.12.1.22.21.31.33.17.22.28.49.35.76.07.26.06.55.01.82-.03.15-.07.3-.14.43-.07.14-.15.27-.24.4-.16.22-.39.4-.62.53-.25.14-.56.23-.85.24-.03,0-.06,0-.09,0-.27,0-.54-.05-.79-.16ZM545.99,44.37s.06,0,.1,0c.03,0,.06-.01.09-.02.03-.01.06-.02.09-.03.03-.01.06-.03.08-.04.03-.02.06-.04.09-.06.02-.02.05-.04.07-.07.02-.02.04-.05.06-.07.02-.03.03-.05.05-.08.01-.03.03-.05.04-.08,0-.03.02-.06.03-.09,0-.04.01-.07.02-.11,0-.03,0-.06,0-.08,0-.03,0-.07,0-.1,0-.03-.01-.07-.02-.1-.01-.03-.02-.06-.04-.09-.01-.03-.03-.05-.04-.08-.02-.03-.03-.05-.05-.07-.02-.03-.05-.05-.07-.08-.03-.02-.05-.04-.08-.06-.02-.02-.05-.03-.07-.05-.03-.01-.06-.03-.09-.04-.03-.01-.06-.02-.09-.03-.03,0-.06-.01-.09-.02-.03,0-.06,0-.09,0-.03,0-.07,0-.1,0-.03,0-.06.01-.1.02-.03.01-.06.02-.09.03-.03.02-.06.03-.09.05-.03.02-.05.04-.08.06-.02.02-.05.04-.07.07-.02.02-.04.05-.06.07-.02.03-.04.06-.06.09-.01.03-.02.05-.04.08,0,.03-.02.05-.03.08,0,.03-.01.07-.02.1,0,.03,0,.06,0,.09,0,.04,0,.07,0,.11,0,.03.01.06.02.1.01.03.02.06.03.09.01.03.03.06.05.09.02.03.04.05.06.08.02.02.04.04.06.07.03.02.05.04.08.06.03.02.05.03.08.05.03.01.05.03.08.04.03.01.06.02.09.03.03,0,.06.01.1.02.03,0,.06,0,.1,0Z"/>
      <path class="cls-3" d="M539.39,26.13c-.26-.07-.51-.2-.73-.34-.36-.23-.67-.57-.87-.95-.02-.04-.04-.07-.06-.11,0,0,0,0,0-.01,0-.02-.02-.03-.02-.05,0-.02-.01-.03-.02-.05-.16-.39-.23-.8-.21-1.23,0-.05,0-.09.01-.14,0,0,0,0,0-.01,0-.03,0-.05.01-.08,0,0,0,0,0,0,0-.05.02-.11.03-.16.03-.13.06-.25.11-.37.19-.52.55-.96.99-1.28.21-.15.46-.27.7-.35.12-.04.24-.07.36-.09.03,0,.05,0,.08-.01.02,0,.04,0,.07,0,.04,0,.07,0,.11-.01.05,0,.11,0,.16,0,.02,0,.04,0,.07,0h0s.01,0,.02,0c0,0,.02,0,.03,0,.52.01,1.04.17,1.46.47.46.32.81.77,1.01,1.3.19.54.21,1.12.05,1.67-.15.52-.46.99-.88,1.33-.45.36-1.01.58-1.58.6-.03,0-.06,0-.09,0-.27,0-.52-.04-.78-.11ZM540.14,24.99c.07,0,.13,0,.2-.01.07-.01.14-.02.2-.04.06-.02.12-.04.17-.06.06-.03.12-.06.18-.09.05-.03.1-.07.16-.1.05-.04.09-.08.14-.12.05-.05.09-.1.13-.16.03-.05.06-.09.09-.14.03-.05.06-.11.08-.16.02-.06.04-.12.06-.18.01-.06.03-.13.04-.19,0-.06.01-.13.01-.19,0-.06,0-.13-.01-.19-.01-.06-.02-.13-.04-.19-.02-.06-.04-.12-.06-.18-.02-.05-.05-.11-.08-.16-.04-.06-.07-.11-.11-.17-.04-.05-.08-.09-.12-.13-.04-.04-.09-.08-.13-.12-.05-.04-.11-.07-.16-.11-.05-.03-.1-.05-.15-.08-.06-.02-.12-.04-.18-.06-.06-.01-.12-.03-.17-.04-.06,0-.12-.01-.18-.01-.01,0-.02,0-.04,0-.06,0-.12,0-.18.01,0,0,0,0-.01,0-.06,0-.12.02-.18.04-.06.02-.12.04-.19.06-.06.03-.12.06-.17.09-.05.03-.11.07-.16.11-.05.04-.09.08-.14.12-.04.05-.08.09-.12.14-.03.05-.07.1-.1.15-.03.05-.06.11-.08.16-.02.06-.05.12-.06.19-.01.05-.02.11-.03.16,0,.01,0,.02,0,.03,0,0,0,0,0,0,0,.06-.01.11-.01.17,0,.06,0,.13.01.19.01.07.02.14.04.21.02.06.04.13.07.19.02.04.03.07.05.1,0,.01.02.03.02.04.03.05.07.1.1.15.04.05.09.1.13.15.05.04.09.08.14.12.05.04.11.07.16.11.05.03.11.05.16.08.06.02.12.04.17.06.06.01.12.03.18.04.06,0,.12.01.18.01Z"/>
      <path class="cls-3" d="M541.38,31.26c-.55-.1-1.03-.45-1.29-.94-.06-.12-.12-.25-.15-.38-.04-.15-.05-.3-.06-.45,0-.16.02-.32.06-.47.02-.09.05-.19.09-.27.25-.6.84-1.02,1.48-1.09.34-.04.69.02,1,.18.26.13.48.31.66.54.19.24.29.52.35.82.05.26.02.53-.05.79-.08.3-.25.56-.47.79-.19.19-.43.35-.69.43-.2.07-.4.1-.61.1-.1,0-.21,0-.31-.03ZM541.73,30.04s.05,0,.07,0c.02,0,.05-.01.07-.02.03-.01.06-.02.08-.03.02-.01.04-.02.06-.04.02-.01.04-.03.06-.05.02-.02.03-.03.05-.05.02-.02.03-.04.05-.06.01-.02.03-.04.04-.06,0-.02.02-.04.03-.06,0-.02.01-.05.02-.07,0-.03,0-.05.01-.08,0-.02,0-.05,0-.07,0-.03,0-.05,0-.08,0-.02-.01-.05-.02-.07,0-.03-.02-.05-.03-.08-.01-.02-.02-.04-.03-.06-.02-.02-.03-.04-.05-.06-.02-.02-.03-.04-.05-.05-.02-.02-.04-.03-.06-.04-.02-.01-.04-.03-.06-.04-.03-.01-.05-.02-.08-.03-.02,0-.04-.01-.07-.02-.02,0-.05,0-.07-.01-.03,0-.05,0-.08,0-.02,0-.05,0-.07,0-.02,0-.05.01-.07.02-.03,0-.05.02-.07.03-.02.01-.04.02-.06.04-.02.02-.04.03-.06.05-.02.02-.04.04-.06.06-.02.02-.03.04-.05.06-.01.02-.02.04-.04.06,0,.01,0,.02-.01.03,0,0,0,0,0,.01,0,.03-.02.06-.03.09,0,.03,0,.05-.01.08,0,.03,0,.06,0,.08,0,.02,0,.05,0,.07,0,.02.01.05.02.07,0,.03.02.05.03.08.01.02.02.04.03.06.02.02.03.04.05.06.02.02.04.04.05.05.02.01.03.03.05.04.02.01.05.03.07.04.02.01.04.02.07.03.02,0,.05.01.07.02.03,0,.05,0,.08.01.03,0,.05,0,.08,0Z"/>
      <path class="cls-3" d="M540.66,16.08c-.74,0-1.48,0-2.23,0-.56-.02-1.51.19-1.55-.62.09-.98,1.36-.53,2.02-.62,1.36,0,2.72,0,4.07,0,.81,0,.81,1.24,0,1.25h-2.32Z"/>
    </g>
  </g>
  <g>
    <circle class="cls-11" cx="285.7" cy="277.8" r="33.83"/>
    <g>
      <path class="cls-3" d="M295.01,268.27c-3.18-4.88-3.98-8.7-2.16-14.29.35-1.29-.23-2.95-1.8-2.8-1.66.37-2.77,1.92-3.65,3.28-2.14,3.75-3.18,8.13-2.91,12.43-.76-1.2-2.93-3.83-4.1-1.69-.52,1.75.35,3.53.46,5.28-1.3-2.04-3.05-3.94-5.35-4.84-1.42-.46-2.6.63-2.42,2.07.04.97.5,1.83.79,2.74.36,1.07.56,2.2.54,3.33.11,2.49-.89,4.86-1.48,7.24-.89,3.02-1.31,6.18-1.23,9.33-.33,8.36,7.6,13.21,15.07,14.04,11.42.81,16.5-9.05,15.46-19.24-.73-6.85-3.31-11.4-7.2-16.9ZM288.85,303c-5.55.09-11.89-2.45-14.57-7.55-1.18-2.29-1.16-4.94-.99-7.45.07-1.25.19-2.63.47-3.9.54-2.3,1.17-4.57,1.9-6.82.48-1.99.56-4.14.09-6.14-.17-.71-.39-1.41-.68-2.08-.17-.61-.52-1.26-.37-1.9,1.64.4,2.99,1.72,4,3.03.7.8,1.12,1.93,2.06,2.48.7.36,1.47-.16,1.65-.87.35-1.87-.62-3.72-.65-5.59,1.02.78,1.54,1.99,2.42,2.9,1.1.77,1.83-.18,1.91-1.27.06-1.32-.22-2.63-.1-3.95.17-2.9,2.27-10.28,5.3-11.13.14.49-.09,1-.16,1.49-.22,1.01-.5,2-.68,3.02-.81,5.63,2.14,10.37,5.3,14.74,3.21,4.64,5.27,10.23,5.26,15.9,0,7.6-3.97,14.6-12.17,15.1Z"/>
      <path class="cls-3" d="M292.08,272.85c-.29-1.08-.59-2.15-.84-3.24-.25-1.2-.81-3.31-2.45-2.57-1,.45-1.22,1.67-1.62,2.59-.58,1.35-.62,2.88-1.3,4.18-.48-.23-.97-.59-1.52-.56-.58.06-1.04.58-1.11,1.15-.12.83.13,1.7-.11,2.52-.8-.69-1.89-2.22-3.09-1.57-.49.27-.8.77-.94,1.3-.17.61-.16,1.24-.27,1.85-.19.93-.41,1.84-.68,2.75-2.23,7.62-.27,15.57,8.51,17.02,1.37.15,2.78.06,4.08-.41,2.5-1,4.46-3.18,5.4-5.68,1.01-2.62.82-5.49.45-8.22-.28-1.7-1.02-3.26-1.78-4.79-1.02-2.06-2.13-4.11-2.75-6.33ZM293.84,293.56c-1.26,1.8-3.24,3.22-5.47,3.38-2.39.12-4.79-.84-6.61-2.35-2.15-1.85-3.05-4.76-3.03-7.53-.06-3.56,1.62-6.84,1.99-10.34.44.32.72.8,1.12,1.17.66.65,1.88.82,2.48.01.56-.83.51-1.88.54-2.83.92.64,1.85.28,2.42-.61.48-.73.59-1.64.84-2.47.27-1.19.64-2.37,1.29-3.41.69,2.18.88,4.49,1.81,6.59.64,1.74,1.55,3.35,2.29,5.05.66,1.22,1.21,2.5,1.51,3.85.81,3.12.64,6.73-1.17,9.49Z"/>
      <path class="cls-3" d="M279.17,262.22c1.27.24,2.23-.78,2.55-1.91.52-1.87-.46-3.9.45-5.72.45-.84.95-1.64,1.48-2.44.35-.51.76-.99.98-1.58.53-1.15-.1-2.2-1.41-1.91-2.16.4-5.03,3.28-6.22,5.09-1.26,1.96-1.38,4.62-.12,6.62.53.83,1.29,1.67,2.29,1.86ZM277.78,255.67c.87-2.25,3.16-4.21,5.2-5.43-.49.77-.97,1.55-1.34,2.39-.74.96-1.32,2.09-1.49,3.31-.15,1.15.17,2.3.1,3.46-.07.44-.13,1.29-.69,1.34-1.94-.64-2.39-3.33-1.78-5.06Z"/>
    </g>
  </g>
  <g>
    <circle class="cls-9" cx="158.84" cy="277.8" r="33.83"/>
    <g>
      <path class="cls-2" d="M146.66,262.32h.51c.37,0,.68.24.9.71-.72,14.23-1.17,24.03-1.37,29.42-.26,1.46-.69,2.2-1.29,2.2h-.2c-.67,0-1.48-1.76-2.44-5.27-1.71-5.52-2.56-8.41-2.56-8.69h1.1c-.5,7.24-.76,12-.76,14.28l-.68.46h-.51c-.63,0-1.1-1.25-1.39-3.76-1.43-6.72-2.84-15.3-4.22-25.73-.03,0-.19-.6-.46-1.81,0-.29.27-.6.81-.93h.59c.67,0,1.23,2,1.68,6.01,1.17,7.7,1.95,12.61,2.34,14.72l.9,4.86h-1.03c.52-8.32.91-12.82,1.17-13.5l.9-.17c.75,0,1.27,1.42,1.56,4.25.31,1.55,1.15,4.56,2.51,9.03l.71,2.44-.83.42c.39-11.51.85-21,1.39-28.49l.66-.44Z"/>
      <path class="cls-2" d="M158.28,260.95c2.21,0,3.88,4.54,5,13.62.06.86.1,1.95.1,3.27v.39c0,.26-.02.52-.07.78.05.07.07.33.07.78v.1c0,.46-.02.72-.07.78.05.26.07.42.07.49,0,7-1.03,11.36-3.08,13.09-.83.33-1.41.49-1.73.49h-.78c-2.65-.63-4.29-3.82-4.91-9.55l-.29-4c0-9.24,1.18-15.7,3.54-19.36.78-.59,1.5-.88,2.15-.88ZM154.79,280.87c0,3.63.48,6.8,1.44,9.52.8,1.6,1.42,2.39,1.86,2.39h.1c.98,0,1.63-.79,1.95-2.37.7-1.66,1.05-5.23,1.05-10.72v-1.95c0-3.79-.68-8.15-2.03-13.06-.44-.98-.77-1.54-.98-1.68-.36.13-.59.34-.68.63-1.81,3.83-2.71,9.57-2.71,17.24Z"/>
      <path class="cls-2" d="M182.5,262.32h.51c.37,0,.68.24.9.71-.72,14.23-1.17,24.03-1.37,29.42-.26,1.46-.69,2.2-1.29,2.2h-.2c-.67,0-1.48-1.76-2.44-5.27-1.71-5.52-2.56-8.41-2.56-8.69h1.1c-.5,7.24-.76,12-.76,14.28l-.68.46h-.51c-.63,0-1.1-1.25-1.39-3.76-1.43-6.72-2.84-15.3-4.22-25.73-.03,0-.19-.6-.46-1.81,0-.29.27-.6.81-.93h.59c.67,0,1.23,2,1.68,6.01,1.17,7.7,1.95,12.61,2.34,14.72l.9,4.86h-1.03c.52-8.32.91-12.82,1.17-13.5l.9-.17c.75,0,1.27,1.42,1.56,4.25.31,1.55,1.15,4.56,2.51,9.03l.71,2.44-.83.42c.39-11.51.85-21,1.39-28.49l.66-.44Z"/>
    </g>
  </g>
  <g>
    <circle class="cls-5" cx="33.83" cy="155.13" r="33.83"/>
    <path class="cls-3" d="M45.61,179.56c-.11-.12-.22-.23-.33-.35-.17-.17-.33-.35-.5-.52-.32-.34-.65-.67-.97-1.01-.67-.68-1.34-1.36-2.01-2.03-1.36-1.37-2.71-2.74-4.09-4.09-1.41-1.38-2.83-2.76-4.26-4.11-1.42-1.35-2.84-2.69-4.25-4.04-1.37-1.32-2.71-2.67-4.04-4.03-1.25-1.28-2.51-2.57-3.75-3.86-.29-.3-.58-.6-.87-.9-.3-.32-.61-.63-.88-.97-.22-.28-.41-.6-.51-.95-.09-.33-.03-.74.21-.99.25-.27.57-.42.92-.51.22-.06.45-.08.67-.11.25-.03.5-.05.76-.07.79-.06,1.59-.13,2.38-.21,1.54-.14,3.08-.28,4.62-.37.33-.02.65-.04.98-.06.3-.02.61-.03.91-.07.05,0,.1-.02.16-.03.04-.01.09-.03.13-.05.04-.02.08-.04.11-.06.02-.01.04-.03.06-.05.01-.01.02-.02.03-.03,0,0,0,0,0,0,0,0,0,0,0-.01,0-.01,0-.02,0-.03,0-.02,0-.04-.01-.06-.01-.03-.02-.06-.03-.09-.04-.08-.08-.15-.12-.22-.13-.2-.28-.39-.44-.58-.55-.65-1.16-1.25-1.77-1.85-.62-.61-1.25-1.22-1.87-1.83-.65-.64-1.31-1.28-1.97-1.92-.65-.63-1.31-1.26-1.95-1.89-.61-.6-1.22-1.22-1.83-1.82-.59-.59-1.18-1.17-1.75-1.76-.23-.23-.46-.47-.65-.74-.11-.16-.2-.33-.24-.51-.05-.22-.03-.47.06-.68.18-.45.63-.73,1.05-.93.42-.2.86-.36,1.3-.5.88-.27,1.79-.48,2.69-.7.85-.21,1.71-.43,2.56-.66.78-.21,1.57-.42,2.36-.6.4-.09.8-.19,1.21-.26.19-.04.38-.07.57-.08.24,0,.48.02.71.08.45.11.85.35,1.21.63.36.29.67.63.96.99.27.35.52.71.77,1.07.27.39.54.79.81,1.19,1,1.47,1.94,2.98,2.89,4.48.49.77.98,1.53,1.47,2.3.52.81,1.05,1.62,1.58,2.42,1.01,1.55,2.04,3.09,3.05,4.64.49.75.99,1.51,1.48,2.27.46.71.92,1.43,1.34,2.17.18.31.35.62.49.95.07.16.11.32.13.49.02.21-.02.41-.09.6-.13.33-.43.57-.77.68-.42.14-.89.16-1.33.17-.85.02-1.7,0-2.54-.02-.87-.02-1.73-.06-2.59-.11-.81-.04-1.62-.09-2.43-.13-.86-.04-1.73-.1-2.59-.14-.26-.01-.52-.03-.78-.02-.07,0-.15,0-.22.02-.02,0-.03,0-.05.01.01.07.03.14.05.21.06.19.13.37.21.54.35.75.78,1.46,1.2,2.17.45.76.91,1.52,1.37,2.27.45.75.91,1.49,1.37,2.24.47.77.93,1.54,1.39,2.31.31.51.62,1.02.93,1.53.06.1.13.21.19.31.02.02.03.04.04.07.92,1.47,1.87,2.92,2.8,4.39.91,1.42,1.82,2.83,2.7,4.26.29.47.58.95.86,1.43.17.3.04.69-.26.84-.05.03-.1.04-.15.06-.05.03-.11.05-.12.06-.07.03-.14.04-.21.04-.19,0-.38-.09-.5-.24ZM21.54,153.84c.3.31.6.62.9.93.61.64,1.23,1.27,1.85,1.91.63.65,1.27,1.3,1.9,1.94.66.68,1.32,1.35,1.99,2.02,1.39,1.39,2.82,2.74,4.24,4.09,1.4,1.32,2.8,2.64,4.18,3.98,1.39,1.34,2.77,2.7,4.13,4.07.7.7,1.39,1.41,2.09,2.11.12.12.24.25.37.37-.62-.97-1.23-1.93-1.85-2.9-.47-.73-.94-1.46-1.4-2.19-.11-.18-.23-.36-.34-.54-.06-.09-.12-.19-.18-.28,0,0,0,0,0,0-.01-.02-.03-.04-.04-.06,0,0,0,0,0,0-.06-.09-.11-.18-.17-.27-.96-1.55-1.89-3.12-2.85-4.68-.91-1.49-1.83-2.97-2.71-4.48-.19-.33-.39-.67-.56-1.02-.21-.42-.41-.84-.54-1.29-.05-.19-.09-.39-.08-.59,0-.2.07-.39.18-.56.05-.08.11-.15.18-.22.1-.1.22-.17.36-.22.16-.06.33-.1.5-.12.17-.02.35-.02.52-.02.18,0,.35.01.53.02.41.02.83.04,1.24.07.82.05,1.65.09,2.47.13.85.04,1.7.09,2.55.13.87.04,1.74.06,2.61.07.41,0,.82,0,1.24,0,.27,0,.54-.02.81-.06.07-.01.13-.03.2-.04,0,0,.01,0,.02,0,0,0,0-.02,0-.02-.02-.06-.04-.11-.07-.17-.28-.6-.64-1.17-.94-1.66-.93-1.48-1.89-2.94-2.85-4.4-1.02-1.56-2.05-3.11-3.07-4.67-1.01-1.54-1.99-3.1-2.98-4.65-.48-.75-.95-1.5-1.44-2.25-.5-.77-1.02-1.53-1.54-2.29-.32-.47-.64-.94-1-1.39-.11-.13-.23-.26-.36-.39-.12-.11-.25-.21-.38-.31-.09-.06-.17-.11-.26-.16-.06-.03-.11-.05-.17-.08-.06-.02-.12-.04-.18-.05-.06-.01-.12-.02-.18-.03-.04,0-.07,0-.11,0-.09,0-.17.02-.26.03-.37.06-.74.15-1.1.23-.44.1-.88.21-1.32.32-.76.2-1.52.41-2.28.61-.65.17-1.31.33-1.97.49-.68.17-1.36.33-2.03.52-.4.12-.8.26-1.19.43-.11.05-.22.11-.32.17-.05.03-.1.07-.14.1-.01,0-.02.02-.03.03.04.06.08.11.12.16.21.25.44.47.67.7.3.31.6.61.91.91.59.59,1.19,1.19,1.78,1.78,1.28,1.28,2.6,2.53,3.9,3.8.64.63,1.29,1.26,1.93,1.89.62.6,1.23,1.2,1.82,1.83.31.32.6.66.88,1.02.3.38.57.81.64,1.3.04.28-.02.55-.15.8-.13.25-.36.42-.6.56-.46.28-1,.31-1.52.34-.82.05-1.64.1-2.45.16-.78.06-1.56.12-2.34.19-.73.07-1.46.14-2.2.2-.33.03-.67.06-1,.08-.43.03-.86.06-1.28.12-.09.02-.18.03-.27.06-.03.01-.07.02-.1.04,0,0-.01,0-.02.01,0,0,0,.02,0,.02.03.05.05.1.08.15.08.12.16.23.24.33.26.3.54.59.81.88Z"/>
  </g>
  <g>
    <circle class="cls-1" cx="285.7" cy="33.83" r="33.83"/>
    <g>
      <path class="cls-3" d="M277.37,28.01c-.53-.02-1.06-.13-1.55-.33-.92-.38-1.73-1.08-2.2-1.96-.24-.45-.42-.94-.49-1.44-.07-.5-.08-1.01.02-1.5.05-.27.12-.53.22-.78.09-.24.21-.47.34-.7.27-.45.62-.85,1.03-1.18.78-.63,1.77-.97,2.77-.97.99,0,1.96.34,2.74.95.78.6,1.33,1.48,1.57,2.44.12.5.15,1.01.1,1.52-.02.24-.07.48-.14.72-.06.24-.15.48-.26.7-.11.22-.23.43-.36.63-.01.02-.02.04-.03.05-.05.07-.1.13-.15.2-.03.03-.05.07-.08.1-.03.03-.05.06-.08.09-.01.02-.03.03-.05.05,0,0,0,0,0,0-.04.04-.08.09-.12.13-.01.01-.03.03-.04.04-.49.48-1.09.84-1.74,1.05-.44.14-.9.21-1.36.21-.05,0-.09,0-.14,0ZM277.7,26.94c.14-.01.28-.03.42-.05.16-.03.31-.07.46-.12.16-.06.31-.12.46-.19.11-.06.22-.12.33-.19.11-.08.23-.16.33-.25.11-.1.22-.2.32-.31.01-.02.03-.03.04-.05.08-.09.15-.19.23-.29.08-.13.16-.26.23-.39.06-.12.11-.25.16-.38.05-.15.1-.31.13-.46.03-.14.05-.28.06-.42,0-.15.01-.3,0-.45-.01-.15-.03-.31-.06-.46-.03-.14-.07-.28-.11-.41-.05-.14-.11-.28-.17-.41-.07-.13-.14-.25-.21-.37-.08-.12-.18-.24-.27-.36-.09-.1-.19-.2-.29-.29-.11-.1-.22-.19-.34-.27-.12-.08-.24-.15-.37-.22-.14-.07-.28-.13-.42-.18-.14-.05-.29-.09-.43-.12-.14-.03-.29-.05-.43-.06-.16,0-.32,0-.48,0-.15.01-.29.03-.43.06-.15.03-.29.07-.43.12-.13.05-.26.1-.39.16-.12.06-.24.13-.36.2-.12.08-.24.17-.36.27-.11.1-.21.2-.31.3-.09.1-.17.21-.25.32-.08.12-.16.24-.23.37-.07.13-.12.27-.18.4-.05.15-.09.29-.13.44-.03.15-.05.29-.07.44,0,.15-.01.29,0,.44.01.17.03.33.06.5.03.14.07.28.11.42.05.13.1.26.16.39.06.13.14.25.21.37.08.11.16.22.25.33.1.11.21.22.32.32.1.08.2.17.3.24.13.09.27.17.41.25.14.07.27.12.42.18.15.05.31.09.47.13.13.02.25.04.38.05.15,0,.3.01.45,0Z"/>
      <path class="cls-3" d="M276.8,25.79c-.5-.16-.93-.49-1.22-.93-.27-.41-.41-.91-.38-1.41,0-.02,0-.03,0-.05,0,0,0,0,0,0,0,0,0,0,0,0,0,0,0-.02,0-.03.01-.1.03-.19.05-.29.04-.17.09-.34.17-.5,0-.02.02-.03.03-.05.01-.02.02-.04.03-.06.23-.44.6-.79,1.05-1,.43-.2.91-.27,1.38-.19.52.08,1.02.36,1.36.76.18.21.31.43.42.69.1.23.15.49.16.75.02.5-.12,1.02-.42,1.43-.08.11-.16.21-.25.3-.08.08-.17.15-.26.22-.19.15-.41.26-.64.34-.24.08-.49.12-.74.12-.24,0-.49-.04-.72-.11ZM277.53,24.84c.05,0,.11,0,.16-.01.06,0,.11-.02.17-.04.05-.02.1-.04.15-.06.05-.02.1-.05.15-.08.05-.03.09-.06.14-.1.04-.03.08-.07.12-.11.04-.04.07-.08.1-.12.03-.04.06-.09.09-.14.03-.05.05-.1.07-.15.02-.05.03-.1.05-.15.01-.05.02-.1.03-.15,0-.06,0-.11.01-.17,0-.06,0-.11-.01-.17-.01-.06-.02-.12-.04-.18-.02-.05-.04-.11-.06-.16-.02-.05-.05-.1-.08-.15-.03-.04-.05-.08-.08-.12-.04-.04-.08-.09-.12-.13-.04-.04-.08-.07-.13-.11-.04-.03-.09-.06-.13-.09-.04-.02-.09-.05-.14-.07-.05-.02-.11-.04-.16-.05-.05-.01-.11-.02-.16-.03-.06,0-.11,0-.17,0-.06,0-.11,0-.17.01-.05,0-.11.02-.16.03-.05.02-.11.04-.16.06-.05.02-.1.05-.15.08-.04.03-.09.06-.13.09-.04.04-.08.07-.12.11-.04.04-.07.08-.1.12-.03.05-.06.09-.09.14-.02.05-.05.09-.07.14,0,0,0,0,0,.01-.01.04-.03.08-.04.12-.01.06-.03.12-.04.19,0,.05,0,.11,0,.16,0,.06,0,.12.01.17,0,.06.02.11.04.16.02.05.03.1.05.15.02.05.05.1.08.15.03.05.06.09.09.14.03.04.07.08.11.12.04.04.09.08.13.11.04.03.08.06.13.08.05.02.09.05.14.07.05.02.11.04.16.05.05.01.1.02.16.03.06,0,.11,0,.17,0Z"/>
      <path class="cls-3" d="M286.32,54.67c-.53-.02-1.06-.13-1.55-.33-.92-.38-1.73-1.08-2.2-1.96-.24-.45-.42-.94-.49-1.44-.07-.5-.08-1.01.02-1.5.05-.27.12-.53.22-.78.09-.24.21-.47.34-.7.27-.45.62-.85,1.03-1.18.78-.63,1.77-.97,2.77-.97.99,0,1.96.34,2.74.95.78.6,1.33,1.48,1.57,2.44.12.5.15,1.01.1,1.52-.02.24-.07.48-.14.72-.06.24-.15.48-.26.7-.11.22-.23.43-.36.63-.01.02-.02.04-.03.05-.05.07-.1.13-.15.2-.03.03-.05.07-.08.1-.03.03-.05.06-.08.09-.01.02-.03.03-.05.05,0,0,0,0,0,0-.04.04-.08.09-.12.13-.01.01-.03.03-.04.04-.49.48-1.09.84-1.74,1.05-.44.14-.9.21-1.36.21-.05,0-.09,0-.14,0ZM286.64,53.6c.14-.01.28-.03.42-.05.16-.03.31-.07.46-.12.16-.06.31-.12.46-.19.11-.06.22-.12.33-.19.11-.08.23-.16.33-.25.11-.1.22-.2.32-.31.01-.02.03-.03.04-.05.08-.09.15-.19.23-.29.08-.13.16-.26.23-.39.06-.12.11-.25.16-.38.05-.15.1-.31.13-.46.03-.14.05-.28.06-.42,0-.15.01-.3,0-.45-.01-.15-.03-.31-.06-.46-.03-.14-.07-.28-.11-.41-.05-.14-.11-.28-.17-.41-.07-.13-.14-.25-.21-.37-.08-.12-.18-.24-.27-.36-.09-.1-.19-.2-.29-.29-.11-.1-.22-.19-.34-.27-.12-.08-.24-.15-.37-.22-.14-.07-.28-.13-.42-.18-.14-.05-.29-.09-.43-.12-.14-.03-.29-.05-.43-.06-.16,0-.32,0-.48,0-.15.01-.29.03-.43.06-.15.03-.29.07-.43.12-.13.05-.26.1-.39.16-.12.06-.24.13-.36.2-.12.08-.24.17-.36.27-.11.1-.21.2-.31.3-.09.1-.17.21-.25.32-.08.12-.16.24-.23.37-.07.13-.12.27-.18.4-.05.15-.09.29-.13.44-.03.15-.05.29-.07.44,0,.15-.01.29,0,.44.01.17.03.33.06.5.03.14.07.28.11.42.05.13.1.26.16.39.06.13.14.25.21.37.08.11.16.22.25.33.1.11.21.22.32.32.1.08.2.17.3.24.13.09.27.17.41.25.14.07.27.12.42.18.15.05.31.09.47.13.13.02.25.04.38.05.15,0,.3.01.45,0Z"/>
      <path class="cls-3" d="M285.74,52.45c-.5-.16-.93-.49-1.22-.93-.27-.41-.41-.91-.38-1.41,0-.02,0-.03,0-.05,0,0,0,0,0,0,0,0,0,0,0,0,0,0,0-.02,0-.03.01-.1.03-.19.05-.29.04-.17.09-.34.17-.5,0-.02.02-.03.03-.05.01-.02.02-.04.03-.06.23-.44.6-.79,1.05-1,.43-.2.91-.27,1.38-.19.52.08,1.02.36,1.36.76.18.21.31.43.42.69.1.23.15.49.16.75.02.5-.12,1.02-.42,1.43-.08.11-.16.21-.25.3-.08.08-.17.15-.26.22-.19.15-.41.26-.64.34-.24.08-.49.12-.74.12-.24,0-.49-.04-.72-.11ZM286.47,51.5c.05,0,.11,0,.16-.01.06,0,.11-.02.17-.04.05-.02.1-.04.15-.06.05-.02.1-.05.15-.08.05-.03.09-.06.14-.1.04-.03.08-.07.12-.11.04-.04.07-.08.1-.12.03-.04.06-.09.09-.14.03-.05.05-.1.07-.15.02-.05.03-.1.05-.15.01-.05.02-.1.03-.15,0-.06,0-.11.01-.17,0-.06,0-.11-.01-.17-.01-.06-.02-.12-.04-.18-.02-.05-.04-.11-.06-.16-.02-.05-.05-.1-.08-.15-.03-.04-.05-.08-.08-.12-.04-.04-.08-.09-.12-.13-.04-.04-.08-.07-.13-.11-.04-.03-.09-.06-.13-.09-.04-.02-.09-.05-.14-.07-.05-.02-.11-.04-.16-.05-.05-.01-.11-.02-.16-.03-.06,0-.11,0-.17,0-.06,0-.11,0-.17.01-.05,0-.11.02-.16.03-.05.02-.11.04-.16.06-.05.02-.1.05-.15.08-.04.03-.09.06-.13.09-.04.04-.08.07-.12.11-.04.04-.07.08-.1.12-.03.05-.06.09-.09.14-.02.05-.05.09-.07.14,0,0,0,0,0,.01-.01.04-.03.08-.04.12-.01.06-.03.12-.04.19,0,.05,0,.11,0,.16,0,.06,0,.12.01.17,0,.06.02.11.04.16.02.05.03.1.05.15.02.05.05.1.08.15.03.05.06.09.09.14.03.04.07.08.11.12.04.04.09.08.13.11.04.03.08.06.13.08.05.02.09.05.14.07.05.02.11.04.16.05.05.01.1.02.16.03.06,0,.11,0,.17,0Z"/>
      <path class="cls-3" d="M292.63,25.93c.69.91,1.28,2.05,1.04,3.22-.56,2.8-3.33,5.22-6.21,5.22-.03,0-.05,0-.08,0-2.2-.23-3.74-2.07-5.21-3.53-.98-1.02-1.96-2.04-2.93-3.06-.16-.17-.33-.35-.49-.52h0s.06-.1.06-.1l.06-.09.06-.08.05-.09.05-.09.05-.08.05-.08.05-.08.04-.08h0s.1-.06.14-.09c0,0,0,0,.01,0,1.14,1.17,2.25,2.36,3.39,3.53,1.11,1.13,2.18,2.35,3.61,3.08,2.58,1.4,7.04-2.42,6.13-5.16-.29-.77-.83-1.41-1.36-2.02-1.92-2.08-4-4.01-5.97-6.04-2.06-2.08-4.12-4.15-6.3-6.1-.38-.35-.76-.7-1.12-1.02-.51-.43-1.01-.95-1.68-1.1-1.72-.33-3.29.85-4.42,2.02-1,1.22-1.74,3.09-.62,4.46.94,1.35,2.1,2.52,3.23,3.71.09.09.18.18.26.27,0,0,0,0,0,0-.05.1-.09.2-.14.3h-.01s-.04.04-.04.04l-.03.03-.03.03-.03.03-.03.03-.03.03-.03.03-.03.03-.03.03-.03.04-.03.04-.03.04-.03.05-.03.05-.02.04c-.58-.59-1.15-1.18-1.71-1.79-.96-1.08-2.01-2.15-2.59-3.5-.61-1.8.36-3.86,1.65-5.12,1.53-1.49,4-2.81,6.05-1.56,1.68,1.25,3.15,2.77,4.7,4.18,2.12,2.04,4.16,4.14,6.24,6.22,1.49,1.51,3.08,2.94,4.4,4.6Z"/>
      <path class="cls-3" d="M275.04,11.53c-.4.05-.78.18-1.15.35-.53-.56-1.06-1.11-1.61-1.65-.44-.36-.83-1.08-1.49-.9-.98.25-1.92.95-2.25,1.93-.18.48-.23,1.02.11,1.45.64.82,1.42,1.52,2.15,2.26-.16.38-.27.78-.31,1.17-.05-.03-.1-.06-.14-.11-.93-1.1-3.12-2.6-3.02-4.12.09-1.96,1.94-3.68,3.89-3.68.92.09,1.49.96,2.13,1.54.54.59,1.15,1.14,1.7,1.74Z"/>
      <path class="cls-3" d="M284.4,47.58s-.09.07-.14.11c-.11.1-.21.2-.31.3-.09.1-.17.21-.25.32-.05.08-.11.17-.16.25-.93-.14-1.85-.41-2.71-.8-.88-.4-1.71-.92-2.46-1.53-.33-.27-.65-.56-.95-.86-.33-.34-.65-.69-.94-1.06-.3-.38-.59-.78-.85-1.2-.52-.82-.95-1.69-1.3-2.6-.34-.88-.6-1.8-.77-2.73-.17-.95-.27-1.91-.27-2.87,0-.98.07-1.95.24-2.91.16-.94.41-1.86.74-2.76.32-.88.73-1.72,1.21-2.52.06-.11.13-.21.2-.32.1.06.2.12.3.18.14.07.27.12.42.18.09.03.18.06.27.08-.1.16-.2.32-.3.48-.3.51-.57,1.04-.81,1.58-.24.57-.45,1.16-.63,1.76-.18.64-.31,1.28-.41,1.94-.1.69-.15,1.39-.16,2.09,0,.68.04,1.35.12,2.02.09.66.21,1.3.38,1.94.17.62.37,1.23.61,1.83.23.54.48,1.07.77,1.58.28.48.59.94.92,1.38.3.38.61.75.95,1.1.02.02.05.05.07.07.33.33.67.63,1.04.92.34.26.7.51,1.07.73.37.22.75.41,1.14.59.38.16.76.3,1.15.41.39.11.78.19,1.18.25.21.03.43.05.65.07Z"/>
      <path class="cls-3" d="M286.84,47.95c.32.05.63.18.91.36-.41.11-.83.2-1.24.26-.48.07-.97.11-1.45.11-.1,0-.2,0-.31,0,.2-.22.45-.4.72-.53.43-.2.91-.27,1.38-.19Z"/>
      <path class="cls-3" d="M293.83,42.57c.28.08.57.16.85.22-.29.48-.61.95-.96,1.4-.59.76-1.27,1.45-2.01,2.06-.75.6-1.57,1.13-2.45,1.52-.12.05-.24.11-.37.16-.06-.06-.12-.12-.18-.18-.11-.1-.22-.19-.34-.27-.12-.08-.24-.15-.37-.22-.06-.03-.11-.05-.17-.08.24-.08.47-.16.7-.25.4-.17.79-.36,1.17-.57.39-.23.76-.48,1.12-.75.37-.28.72-.59,1.05-.91.35-.35.68-.72.99-1.11.27-.35.52-.7.76-1.07.07.03.15.05.22.08Z"/>
      <path class="cls-3" d="M283.82,52.33s-.05.03-.08.05c-.07.03-.14.05-.21.05-.07,0-.14,0-.21-.03-.06-.02-.12-.04-.19-.06,0,0,0,0,0,0-1.02-.34-2.01-.78-2.96-1.28-.54-.29-1.07-.61-1.58-.95-.5-.33-.97-.69-1.43-1.07-.93-.76-1.78-1.61-2.55-2.53-.77-.93-1.45-1.92-2.02-2.98-.3-.56-.59-1.14-.82-1.71,0,0,0-.01,0-.02,0-.02-.02-.04-.02-.06-.22-.53-.42-1.06-.58-1.61-.18-.58-.33-1.16-.45-1.75-.24-1.15-.37-2.33-.38-3.5,0-.61.02-1.22.07-1.83.05-.59.13-1.18.24-1.76.21-1.19.57-2.36,1-3.49.21-.55.46-1.08.73-1.61.25-.5.53-.99.83-1.46.02-.03.04-.07.06-.1.16-.24.51-.29.75-.14.11.08.2.2.22.34.03.14,0,.28-.09.4-.06.1-.12.2-.19.3-.4.67-.76,1.35-1.07,2.06-.16.36-.3.73-.44,1.1-.13.36-.25.73-.36,1.1-.1.36-.19.72-.27,1.09-.08.37-.15.74-.21,1.12-.06.39-.11.79-.14,1.18-.03.42-.05.84-.06,1.26,0,.38,0,.76.03,1.14.02.39.06.77.1,1.16.1.78.25,1.55.44,2.32.14.53.3,1.05.49,1.56.05.14.1.27.16.41.02.06.05.13.07.19.02.06.05.12.07.18.14.34.29.67.45.99.16.32.33.63.5.94.2.35.42.69.64,1.03.22.33.45.65.69.96.24.3.48.6.73.89.24.28.5.55.75.81.26.25.52.5.78.74.27.24.55.47.83.69.29.23.59.45.89.65.32.22.64.43.97.63.34.2.69.39,1.04.58.34.17.68.33,1.03.49.39.17.79.32,1.2.47,0,.03.02.05.02.08.05.13.1.26.16.39.07.13.14.25.21.37.06.08.11.16.17.24Z"/>
      <path class="cls-3" d="M299.83,42.41c.02.08.01.17-.02.25-1.09,3.17-3.14,6.04-6.01,7.82-.79.45-2.84,1.67-3.68,1.45-.26-.12-.39-.44-.27-.7.13-.33.49-.3.77-.39.94-.33,1.83-.77,2.67-1.29,2.25-1.43,4.01-3.59,5.03-6.05.13-.22.2-.48.29-.73h.04s.01-.01.01-.01h.05c.36-.1.71-.2,1.06-.32.02,0,.03-.01.05-.02Z"/>
      <path class="cls-3" d="M296.02,44.03c-.97-.04-1.93-.24-2.85-.56-.45-.16-.89-.36-1.3-.59-.43-.24-.83-.53-1.21-.85-.48-.42-.88-.92-1.2-1.48-.14-.25-.07-.58.18-.73.25-.15.59-.07.73.18.07.13.15.25.23.38.11.16.23.3.35.45.15.17.32.32.49.47.2.16.4.32.62.46.25.16.51.3.78.43.32.15.65.28.99.38.37.11.75.2,1.13.27.41.07.83.11,1.24.13.43.01.86,0,1.29-.04.31-.03.63-.08.94-.14.08-.01.15-.03.23-.05,0,0,.01,0,.01,0h.05c.36-.1.71-.2,1.06-.32.33-.12.65-.26.96-.42.26-.14.51-.29.76-.46.2-.15.4-.3.59-.46.18-.16.34-.33.5-.5.14-.16.27-.33.39-.51.04-.06.07-.12.11-.18,0,0,0,0,0-.01,0,0,0,0,0,0,0-.02.02-.03.03-.05.14-.25.47-.35.73-.21.25.14.35.47.21.73,0,0,0,0,0,.01,0,0-.01.02-.02.03-.22.4-.51.77-.82,1.1-.18.19-.37.36-.56.53-.2.17-.42.33-.64.48-.39.27-.81.49-1.25.68-.44.2-.9.36-1.37.49-.08.02-.17.04-.25.06-.06.01-.12.03-.18.04h0s-.01,0-.02,0c-.02,0-.05.01-.07.01-.46.1-.92.17-1.38.21-.14.01-.28.02-.42.03-.35.01-.69.01-1.04,0Z"/>
      <path class="cls-3" d="M288.72,38.96c-.1-.1-.16-.23-.17-.37-.01-.28.22-.55.51-.55.82,0,1.64-.01,2.46-.02.92,0,1.84-.02,2.76-.02.92,0,1.84-.02,2.76-.02.93,0,1.86-.02,2.8-.02.94,0,1.88-.02,2.82-.02.63,0,1.25-.01,1.88-.02,0,0,0,0,0,0,0,0,0,0,0,0,0,0,0,0,0,0,0,0,0,0,.01,0,.14,0,.28.05.39.15.1.1.16.23.17.37.01.28-.22.55-.51.55,0,0,0,0-.01,0,0,0,0,0-.01,0-.9,0-1.8.02-2.71.02-.94,0-1.89.02-2.83.02-.92,0-1.85.02-2.77.02-.92,0-1.84.02-2.77.02-.92,0-1.84.02-2.76.02-.55,0-1.1,0-1.66.01,0,0,0,0,0,0-.14,0-.28-.05-.38-.15Z"/>
      <path class="cls-3" d="M283.68,52.14h-12.23c.27-.32.6-.59.98-.77.26-.13.63-.24,1.02-.3h9.76c.02.06.03.12.05.18,0,.03.02.05.02.08.05.13.1.26.16.39.07.13.14.25.21.37.01.02.02.03.03.05Z"/>
      <path class="cls-3" d="M287.4,51.07h1.23c-.07.18-.16.35-.27.5-.08.11-.16.21-.25.3-.08.08-.17.15-.26.22-.02.01-.03.02-.05.04h-2.69c-.23-.17-.44-.37-.6-.61-.09-.14-.17-.29-.23-.45h1.23s.04.05.07.07c.04.04.09.08.13.11.04.03.08.06.13.08.05.02.09.05.14.07.05.02.11.04.16.05.05.01.1.02.16.03.06,0,.11,0,.17,0,.05,0,.11,0,.16-.01.06,0,.11-.02.17-.04.05-.02.1-.03.15-.06.05-.02.1-.05.15-.08.05-.03.09-.06.14-.1.04-.03.08-.07.12-.11.01-.01.03-.03.04-.04Z"/>
      <path class="cls-3" d="M302.55,51.75c-.07.22-.27.39-.51.39h-12.8c.08-.12.15-.25.22-.37.06-.12.11-.25.16-.38.04-.1.07-.21.1-.32h11.22c.39.06.75.17,1.02.3.21.1.41.23.59.38Z"/>
      <path class="cls-3" d="M302.57,55.65c0,.15-.07.29-.17.39-.45.1-.96.12-1.41.14h-27.6c-.99-.05-2.23-.06-2.63-1.07h31.28c.29,0,.53.24.53.53Z"/>
      <path class="cls-3" d="M273.73,56.21c-1.07-.09-2.63.05-3.01-1.23-.29-1.39.42-2.99,1.71-3.6.61-.3,1.79-.5,2.43-.26.53.3.17,1.15-.41.98-.75-.03-1.59.07-2.13.67-.42.48-.63,1.12-.6,1.76-.03.73,1.64.52,2.15.62.69.1.56,1.14-.14,1.06Z"/>
      <path class="cls-3" d="M300.66,56.21c1.07-.09,2.63.05,3.01-1.23.29-1.39-.42-2.99-1.71-3.6-.61-.3-1.79-.5-2.43-.26-.53.3-.17,1.15.41.98.75-.03,1.59.07,2.13.67.42.48.63,1.12.6,1.76.03.73-1.64.52-2.15.62-.69.1-.56,1.14.14,1.06Z"/>
    </g>
  </g>
  <g>
    <circle class="cls-6" cx="34.24" cy="33.83" r="33.83"/>
    <g>
      <path class="cls-3" d="M33.95,59.86c-.14,0-.29-.03-.43-.06-.29-.05-.57-.15-.84-.27-.13-.06-.26-.13-.38-.2-.12-.07-.23-.15-.35-.22-.22-.15-.43-.33-.62-.51-.2-.19-.39-.4-.57-.61-.36-.42-.67-.87-.96-1.33-.57-.93-1.03-1.92-1.44-2.94-.42-1.04-.75-2.11-1.06-3.18-.31-1.08-.55-2.18-.78-3.29-.44-2.16-.73-4.35-.93-6.55-.2-2.18-.31-4.38-.33-6.57-.01-2.14.05-4.29.2-6.43.16-2.15.4-4.3.75-6.42.35-2.11.82-4.21,1.45-6.26.33-1.05.71-2.09,1.15-3.1.44-1,.97-1.97,1.6-2.86.07-.1.14-.19.21-.29,0,0,0-.01.01-.02,0,0,0,0,0,0,0,0,0,0,0,0,.35-.45.75-.87,1.2-1.22.14-.11.29-.22.45-.32.05-.03.1-.06.15-.09.09-.05.19-.11.28-.15.02,0,.03-.02.05-.02.06-.03.13-.06.19-.08.26-.11.53-.18.82-.23.55-.1,1.13-.02,1.65.16.51.17.99.47,1.4.82.42.35.8.75,1.13,1.19.34.44.65.91.92,1.4.27.49.53.98.76,1.49.9,2.02,1.54,4.16,2.02,6.32.48,2.16.84,4.35,1.07,6.55.24,2.25.39,4.51.43,6.78.04,2.26,0,4.52-.15,6.78-.14,2.24-.37,4.47-.74,6.69-.18,1.13-.39,2.25-.64,3.37-.24,1.08-.52,2.15-.85,3.21-.34,1.09-.72,2.17-1.2,3.22-.13.28-.26.56-.4.84-.12.25-.26.5-.4.74-.27.49-.58.95-.91,1.4-.18.24-.38.47-.58.69-.19.21-.41.41-.63.59-.21.17-.43.33-.66.47-.25.15-.52.28-.8.37-.28.09-.57.16-.87.17-.07,0-.15,0-.22,0s-.14,0-.22,0ZM34.09,58.63c.08,0,.16,0,.25,0,.09-.01.19-.03.28-.04.09-.02.19-.05.28-.08.14-.06.28-.12.42-.19.11-.06.21-.13.31-.19.17-.13.34-.26.5-.4.17-.16.32-.33.48-.5.12-.14.24-.28.34-.43.13-.18.26-.36.39-.55.19-.3.38-.61.55-.93.16-.29.3-.58.45-.88.11-.24.22-.48.32-.72.11-.26.22-.53.32-.79.2-.5.37-1.01.54-1.52.29-.91.55-1.82.77-2.75.22-.93.42-1.87.6-2.81.09-.54.19-1.07.27-1.61.09-.59.17-1.18.25-1.78.14-1.1.25-2.21.34-3.32.05-.67.09-1.34.13-2.01.11-2.21.15-4.42.07-6.63-.02-.68-.05-1.35-.09-2.03-.04-.66-.09-1.33-.14-1.99-.1-1.1-.21-2.2-.36-3.3-.14-1.08-.32-2.16-.52-3.23-.08-.44-.17-.88-.27-1.32-.18-.83-.38-1.66-.61-2.48-.23-.82-.49-1.63-.78-2.43-.16-.43-.33-.86-.52-1.28-.18-.41-.37-.81-.58-1.2-.24-.44-.5-.88-.78-1.29-.2-.28-.41-.55-.63-.81-.17-.18-.34-.35-.52-.52-.14-.12-.29-.23-.44-.33-.12-.08-.24-.15-.37-.21-.11-.05-.23-.1-.35-.14-.09-.03-.18-.05-.27-.07-.11-.02-.21-.03-.32-.04-.08,0-.16,0-.24,0-.11.01-.21.03-.32.05-.11.03-.21.06-.31.1-.11.04-.22.09-.32.15-.12.07-.24.14-.36.22-.08.06-.15.11-.23.17,0,0,0,0,0,0,0,0,0,0,0,0-.02.02-.04.04-.07.05,0,0,0,0,0,0,0,0,0,0,0,0-.04.04-.08.07-.13.11-.2.19-.39.38-.57.59-.25.3-.48.62-.7.95-.35.54-.65,1.1-.94,1.68-.23.49-.45.98-.64,1.49-.19.5-.37,1-.54,1.51-.58,1.79-1.02,3.62-1.37,5.47-.39,2.11-.67,4.24-.85,6.38-.07.87-.13,1.73-.18,2.6-.11,2.14-.13,4.28-.07,6.42.04,1.4.12,2.8.23,4.2.19,2.16.45,4.32.86,6.45.1.53.21,1.06.32,1.59.18.81.39,1.62.61,2.43.22.77.47,1.54.74,2.29.16.41.32.82.49,1.23.18.42.38.83.59,1.24.24.45.5.88.78,1.3.22.31.45.6.7.88.16.17.32.33.49.48.13.11.27.21.41.31.11.07.22.13.33.19.11.05.23.1.34.14.09.03.18.05.27.07.12.02.24.04.37.05Z"/>
      <path class="cls-3" d="M60.88,33.52c0,.14-.03.29-.06.43-.05.29-.15.57-.27.84-.06.13-.13.26-.2.38-.07.12-.15.23-.22.35-.15.22-.33.43-.51.62-.19.2-.4.39-.61.57-.42.36-.87.67-1.33.96-.93.57-1.92,1.03-2.94,1.44-1.04.42-2.11.75-3.18,1.06-1.08.31-2.18.55-3.29.78-2.16.44-4.35.73-6.55.93-2.18.2-4.38.31-6.57.33-2.14.01-4.29-.05-6.43-.2-2.15-.16-4.3-.4-6.42-.75-2.11-.35-4.21-.82-6.26-1.45-1.05-.33-2.09-.71-3.1-1.15-1-.44-1.97-.97-2.86-1.6-.1-.07-.19-.14-.29-.21,0,0-.01,0-.02-.01,0,0,0,0,0,0,0,0,0,0,0,0-.45-.35-.87-.75-1.22-1.2-.11-.14-.22-.29-.32-.45-.03-.05-.06-.1-.09-.15-.05-.09-.11-.19-.15-.28,0-.02-.02-.03-.02-.05-.03-.06-.06-.13-.08-.19-.11-.26-.18-.53-.23-.82-.1-.55-.02-1.13.16-1.65.17-.51.47-.99.82-1.4.35-.42.75-.8,1.19-1.13.44-.34.91-.65,1.4-.92.49-.27.98-.53,1.49-.76,2.02-.9,4.16-1.54,6.32-2.02,2.16-.48,4.35-.84,6.55-1.07,2.25-.24,4.51-.39,6.78-.43,2.26-.04,4.52,0,6.78.15,2.24.14,4.47.37,6.69.74,1.13.18,2.25.39,3.37.64,1.08.24,2.15.52,3.21.85,1.09.34,2.17.72,3.22,1.2.28.13.56.26.84.4.25.12.5.26.74.4.49.27.95.58,1.4.91.24.18.47.38.69.58.21.19.41.41.59.63.17.21.33.43.47.66.15.25.28.52.37.8.09.28.16.57.17.87,0,.07,0,.15,0,.22s0,.14,0,.22ZM59.64,33.38c0-.08,0-.16,0-.25-.01-.09-.03-.19-.04-.28-.02-.09-.05-.19-.08-.28-.06-.14-.12-.28-.19-.42-.06-.11-.13-.21-.19-.31-.13-.17-.26-.34-.4-.5-.16-.17-.33-.32-.5-.48-.14-.12-.28-.24-.43-.34-.18-.13-.36-.26-.55-.39-.3-.19-.61-.38-.93-.55-.29-.16-.58-.3-.88-.45-.24-.11-.48-.22-.72-.32-.26-.11-.53-.22-.79-.32-.5-.2-1.01-.37-1.52-.54-.91-.29-1.82-.55-2.75-.77-.93-.22-1.87-.42-2.81-.6-.54-.09-1.07-.19-1.61-.27-.59-.09-1.18-.17-1.78-.25-1.1-.14-2.21-.25-3.32-.34-.67-.05-1.34-.09-2.01-.13-2.21-.11-4.42-.15-6.63-.07-.68.02-1.35.05-2.03.09-.66.04-1.33.09-1.99.14-1.1.1-2.2.21-3.3.36-1.08.14-2.16.32-3.23.52-.44.08-.88.17-1.32.27-.83.18-1.66.38-2.48.61-.82.23-1.63.49-2.43.78-.43.16-.86.33-1.28.52-.41.18-.81.37-1.2.58-.44.24-.88.5-1.29.78-.28.2-.55.41-.81.63-.18.17-.35.34-.52.52-.12.14-.23.29-.33.44-.08.12-.15.24-.21.37-.05.11-.1.23-.14.35-.03.09-.05.18-.07.27-.02.11-.03.21-.04.32,0,.08,0,.16,0,.24.01.11.03.21.05.32.03.11.06.21.1.31.04.11.09.22.15.32.07.12.14.24.22.36.06.08.11.15.17.23,0,0,0,0,0,0,0,0,0,0,0,0,.02.02.04.04.05.07,0,0,0,0,0,0,0,0,0,0,0,0,.04.04.07.08.11.13.19.2.38.39.59.57.3.25.62.48.95.7.54.35,1.1.65,1.68.94.49.23.98.45,1.49.64.5.19,1,.37,1.51.54,1.79.58,3.62,1.02,5.47,1.37,2.11.39,4.24.67,6.38.85.87.07,1.73.13,2.6.18,2.14.11,4.28.13,6.42.07,1.4-.04,2.8-.12,4.2-.23,2.16-.19,4.32-.45,6.45-.86.53-.1,1.06-.21,1.59-.32.81-.18,1.62-.39,2.43-.61.77-.22,1.54-.47,2.29-.74.41-.16.82-.32,1.23-.49.42-.18.83-.38,1.24-.59.45-.24.88-.5,1.3-.78.31-.22.6-.45.88-.7.17-.16.33-.32.48-.49.11-.13.21-.27.31-.41.07-.11.13-.22.19-.33.05-.11.1-.23.14-.34.03-.09.05-.18.07-.27.02-.12.04-.24.05-.37Z"/>
      <path class="cls-3" d="M52.87,52.27c-.11.1-.22.18-.34.26-.24.17-.51.3-.79.4-.14.05-.27.09-.41.13-.13.03-.27.06-.4.09-.26.05-.54.07-.8.08-.28.01-.56,0-.83-.02-.55-.04-1.09-.14-1.62-.27-1.06-.26-2.09-.63-3.09-1.06-1.03-.44-2.02-.96-3-1.5-.98-.55-1.94-1.15-2.88-1.78-1.84-1.22-3.59-2.56-5.29-3.97-1.69-1.4-3.31-2.87-4.87-4.41-1.53-1.51-3-3.07-4.4-4.69-1.41-1.63-2.75-3.32-4.01-5.08-1.25-1.74-2.4-3.56-3.4-5.45-.52-.98-.98-1.98-1.38-3.01-.4-1.02-.71-2.08-.89-3.16-.02-.12-.04-.24-.05-.35,0,0,0-.01,0-.02,0,0,0,0,0-.01,0,0,0,0,0-.01-.07-.57-.08-1.15-.02-1.71.02-.18.05-.36.09-.54.01-.06.03-.11.04-.17.03-.1.06-.21.09-.31,0-.02.01-.04.02-.05.02-.07.05-.13.08-.19.11-.26.25-.51.42-.74.32-.46.78-.81,1.28-1.05.49-.24,1.03-.37,1.57-.41.55-.04,1.1-.03,1.64.04.55.08,1.1.18,1.64.33.54.15,1.07.32,1.59.52,2.07.79,4.03,1.85,5.89,3.04,1.87,1.19,3.67,2.48,5.39,3.87,1.76,1.42,3.46,2.92,5.1,4.49,1.63,1.57,3.2,3.2,4.69,4.9,1.48,1.68,2.9,3.43,4.21,5.25.67.93,1.32,1.87,1.93,2.84.59.94,1.16,1.89,1.67,2.87.53,1.02,1.03,2.05,1.43,3.12.11.29.21.58.31.88.09.27.17.54.24.81.15.54.26,1.08.34,1.63.05.3.06.6.08.89.01.29,0,.58-.02.86-.02.27-.07.54-.14.8-.07.28-.17.57-.3.83-.14.26-.29.51-.49.74-.05.06-.1.11-.15.16-.05.05-.1.1-.16.15ZM52.1,51.29c.06-.06.11-.12.17-.18.06-.07.11-.15.17-.23.05-.08.1-.17.14-.25.06-.14.11-.28.16-.43.03-.12.06-.24.09-.36.03-.21.06-.42.07-.63,0-.23,0-.46-.01-.69-.02-.18-.03-.36-.06-.54-.03-.22-.07-.44-.11-.66-.08-.35-.17-.7-.26-1.04-.09-.32-.2-.63-.31-.94-.09-.24-.18-.49-.28-.73-.11-.26-.22-.52-.33-.79-.21-.49-.46-.98-.7-1.46-.44-.85-.9-1.68-1.4-2.49-.5-.82-1.03-1.62-1.57-2.41-.31-.45-.62-.89-.95-1.33-.35-.48-.72-.96-1.08-1.43-.68-.88-1.39-1.74-2.11-2.59-.44-.51-.88-1.01-1.33-1.52-1.49-1.64-3.02-3.23-4.64-4.73-.5-.46-.99-.92-1.5-1.37-.5-.44-1-.88-1.51-1.31-.85-.71-1.71-1.4-2.58-2.08-.87-.67-1.75-1.3-2.65-1.92-.37-.25-.75-.5-1.12-.74-.72-.46-1.44-.9-2.19-1.32-.74-.41-1.5-.8-2.27-1.16-.42-.19-.84-.37-1.27-.54-.41-.16-.83-.31-1.26-.44-.48-.14-.97-.27-1.47-.36-.34-.06-.68-.1-1.02-.12-.24,0-.49,0-.73,0-.18.02-.36.04-.54.07-.14.03-.27.07-.41.11-.12.04-.23.09-.35.15-.08.04-.16.09-.24.14-.09.06-.17.13-.26.2-.06.06-.11.11-.17.17-.07.08-.13.17-.19.26-.06.09-.11.19-.16.29-.05.11-.09.22-.12.33-.04.14-.07.27-.1.41-.02.09-.03.19-.04.28,0,0,0,0,0,.01,0,0,0,0,0,0,0,.03,0,.06,0,.09,0,0,0,0,0,.01,0,0,0,0,0,0,0,.05,0,.11-.01.17,0,.27,0,.54.01.82.04.39.1.78.17,1.17.14.63.32,1.24.53,1.85.18.51.38,1.01.6,1.5.22.49.44.97.68,1.45.86,1.68,1.84,3.28,2.9,4.84,1.22,1.77,2.52,3.48,3.91,5.12.56.66,1.13,1.32,1.71,1.97,1.43,1.59,2.93,3.12,4.49,4.59,1.02.96,2.06,1.89,3.13,2.8,1.66,1.4,3.38,2.73,5.17,3.96.45.3.9.6,1.35.89.71.45,1.42.88,2.15,1.28.7.39,1.42.76,2.15,1.1.4.18.81.36,1.22.52.43.17.86.32,1.3.46.49.15.98.27,1.47.37.37.06.74.11,1.12.13.23,0,.46,0,.69-.01.17-.02.34-.04.51-.07.13-.03.25-.06.37-.1.12-.04.23-.09.34-.14.08-.04.16-.09.24-.14.1-.07.2-.15.29-.23Z"/>
      <path class="cls-3" d="M53.29,14.6c.1.11.18.22.26.34.17.24.3.51.4.79.05.14.09.27.13.41.03.13.06.27.09.4.05.26.07.54.08.8.01.28,0,.56-.02.83-.04.55-.14,1.09-.27,1.62-.26,1.06-.63,2.09-1.06,3.09-.44,1.03-.96,2.02-1.5,3-.55.98-1.15,1.94-1.78,2.88-1.22,1.84-2.56,3.59-3.97,5.29-1.4,1.69-2.87,3.31-4.41,4.87-1.51,1.53-3.07,3-4.69,4.4-1.63,1.41-3.32,2.75-5.08,4.01-1.74,1.25-3.56,2.4-5.45,3.4-.98.52-1.98.98-3.01,1.38-1.02.4-2.08.71-3.16.89-.12.02-.24.04-.35.05,0,0-.01,0-.02,0,0,0,0,0-.01,0,0,0,0,0-.01,0-.57.07-1.15.08-1.71.02-.18-.02-.36-.05-.54-.09-.06-.01-.11-.03-.17-.04-.1-.03-.21-.06-.31-.09-.02,0-.04-.01-.05-.02-.07-.02-.13-.05-.19-.08-.26-.11-.51-.25-.74-.42-.46-.32-.81-.78-1.05-1.28-.24-.49-.37-1.03-.41-1.57-.04-.55-.03-1.1.04-1.64.08-.55.18-1.1.33-1.64.15-.54.32-1.07.52-1.59.79-2.07,1.85-4.03,3.04-5.89,1.19-1.87,2.48-3.67,3.87-5.39,1.42-1.76,2.92-3.46,4.49-5.1,1.57-1.63,3.2-3.2,4.9-4.69,1.68-1.48,3.43-2.9,5.25-4.21.93-.67,1.87-1.32,2.84-1.93.94-.59,1.89-1.16,2.87-1.67,1.02-.53,2.05-1.03,3.12-1.43.29-.11.58-.21.88-.31.27-.09.54-.17.81-.24.54-.15,1.08-.26,1.63-.34.3-.05.6-.06.89-.08.29-.01.58,0,.86.02.27.02.54.07.8.14.28.07.57.17.83.3.26.14.51.29.74.49.06.05.11.1.16.15.05.05.1.1.15.16ZM52.31,15.37c-.06-.06-.12-.11-.18-.17-.07-.06-.15-.11-.23-.17-.08-.05-.17-.1-.25-.14-.14-.06-.28-.11-.43-.16-.12-.03-.24-.06-.36-.09-.21-.03-.42-.06-.63-.07-.23,0-.46,0-.69.01-.18.02-.36.03-.54.06-.22.03-.44.07-.66.11-.35.08-.7.17-1.04.26-.32.09-.63.2-.94.31-.24.09-.49.18-.73.28-.26.11-.52.22-.79.33-.49.21-.98.46-1.46.7-.85.44-1.68.9-2.49,1.4-.82.5-1.62,1.03-2.41,1.57-.45.31-.89.62-1.33.95-.48.35-.96.72-1.43,1.08-.88.68-1.74,1.39-2.59,2.11-.51.44-1.01.88-1.52,1.33-1.64,1.49-3.23,3.02-4.73,4.64-.46.5-.92.99-1.37,1.5-.44.5-.88,1-1.31,1.51-.71.85-1.4,1.71-2.08,2.58-.67.87-1.3,1.75-1.92,2.65-.25.37-.5.75-.74,1.12-.46.72-.9,1.44-1.32,2.19-.41.74-.8,1.5-1.16,2.27-.19.42-.37.84-.54,1.27-.16.41-.31.83-.44,1.26-.14.48-.27.97-.36,1.47-.06.34-.1.68-.12,1.02,0,.24,0,.49,0,.73.02.18.04.36.07.54.03.14.07.27.11.41.04.12.09.23.15.35.04.08.09.16.14.24.06.09.13.17.2.26.06.06.11.11.17.17.08.07.17.13.26.19.09.06.19.11.29.16.11.05.22.09.33.12.14.04.27.07.41.1.09.02.19.03.28.04,0,0,0,0,.01,0,0,0,0,0,0,0,.03,0,.06,0,.09,0,0,0,0,0,.01,0,0,0,0,0,0,0,.05,0,.11,0,.17.01.27,0,.54,0,.82-.01.39-.04.78-.1,1.17-.17.63-.14,1.24-.32,1.85-.53.51-.18,1.01-.38,1.5-.6.49-.22.97-.44,1.45-.68,1.68-.86,3.28-1.84,4.84-2.9,1.77-1.22,3.48-2.52,5.12-3.91.66-.56,1.32-1.13,1.97-1.71,1.59-1.43,3.12-2.93,4.59-4.49.96-1.02,1.89-2.06,2.8-3.13,1.4-1.66,2.73-3.38,3.96-5.17.3-.45.6-.9.89-1.35.45-.71.88-1.42,1.28-2.15.39-.7.76-1.42,1.1-2.15.18-.4.36-.81.52-1.22.17-.43.32-.86.46-1.3.15-.49.27-.98.37-1.47.06-.37.11-.74.13-1.12,0-.23,0-.46-.01-.69-.02-.17-.04-.34-.07-.51-.03-.13-.06-.25-.1-.37-.04-.12-.09-.23-.14-.34-.04-.08-.09-.16-.14-.24-.07-.1-.15-.2-.23-.29Z"/>
      <path class="cls-3" d="M39.06,32.49c.08.5.07,1.01,0,1.51-.04.25-.1.49-.17.73-.07.23-.16.45-.27.67-.11.22-.23.43-.37.62-.08.11-.16.21-.24.32-.08.09-.16.18-.25.27-.69.72-1.61,1.21-2.59,1.4-.3.06-.6.08-.9.08-.69,0-1.37-.14-2-.43-.44-.19-.85-.46-1.2-.77-.38-.33-.71-.72-.97-1.16-.12-.21-.23-.42-.32-.64-.09-.22-.16-.45-.23-.68-.06-.24-.1-.48-.12-.73-.02-.24-.03-.49-.01-.73.01-.24.04-.48.1-.71.05-.24.11-.48.2-.7.05-.12.09-.24.15-.35,0-.01,0-.03.02-.04h0s0,0,0,0c0,0,0,0,0,0,0,0,0,0,0,0,.16-.32.35-.63.57-.91,0,0,0,0,0,0,.04-.05.07-.09.11-.14,0,0,.02-.02.02-.02.27-.32.59-.6.93-.83.39-.26.81-.47,1.26-.62.43-.14.88-.22,1.33-.23.23,0,.46,0,.7.03.23.02.45.07.68.12.46.12.91.31,1.32.55.8.48,1.46,1.21,1.86,2.05.1.21.19.43.26.66.07.24.13.48.17.72Z"/>
      <path class="cls-3" d="M22.67,33.17c-.21-.27-.42-.53-.63-.8-1.32-1.71-2.56-3.49-3.67-5.35-1.06.27-2.12.59-3.15.96-.45.16-.89.34-1.32.52-.44.19-.87.4-1.29.62-.25.13-.49.27-.73.41-.23.14-.45.29-.68.44-.13.1-.27.19-.39.3-.13.11-.26.22-.39.33-.08.08-.16.15-.24.23-.08.08-.15.16-.23.25-.06.07-.12.15-.18.22-.07.09-.14.19-.21.28-.04.06-.07.12-.11.18-.04.06-.07.13-.1.19-.03.06-.06.13-.09.19s-.05.13-.08.2c-.02.06-.03.11-.05.17-.02.06-.03.12-.04.18,0,.06-.02.12-.03.17,0,.05,0,.09-.01.14,0,.1,0,.2,0,.3.01.11.03.22.05.34.03.12.07.25.11.37.05.13.12.26.18.39.07.11.14.23.21.34.06.09.13.18.2.26.07.08.14.16.21.24.09.1.19.19.28.29.1.09.19.18.29.27.14.12.29.24.44.35.17.12.34.24.51.36.13.08.26.17.4.25.16.1.33.19.49.29.29.17.59.31.89.46.47.22.95.43,1.44.62.52.2,1.04.39,1.57.57.43.14.86.27,1.29.39.23.07.47.13.7.19.99-1.63,2.09-3.19,3.24-4.7.36-.48.74-.95,1.11-1.41ZM25.65,35.68c0-.12,0-.24,0-.35h0c-.03-1.56-.02-3.1.03-4.64-.56.62-1.1,1.24-1.62,1.86-.17.21-.35.42-.52.63.32.4.65.8.99,1.2.37.44.75.88,1.13,1.31ZM25.95,40.69c-.12-1.29-.21-2.59-.26-3.89,0-.03,0-.05,0-.08-.89-.98-1.75-1.99-2.59-3.01-1.01,1.26-1.98,2.54-2.89,3.88-.3.44-.59.89-.88,1.34-.11.18-.23.36-.34.54h.02c.9.23,1.8.42,2.71.59,1.06.19,2.12.37,3.19.51.35.05.69.09,1.04.13ZM25.72,29.65c.06-1.32.17-2.65.3-3.96-1.6.17-3.2.4-4.78.7-.53.1-1.05.21-1.57.32-.21.05-.42.1-.62.15,0,0,0,.01.01.02.47.79.98,1.57,1.5,2.33.61.89,1.24,1.76,1.9,2.61.21.28.43.55.65.83.83-1,1.69-1.98,2.57-2.93.02-.02.03-.04.05-.06ZM26.63,49.14c.21-.12.42-.24.63-.36-.45-1.85-.78-3.73-1.03-5.62-.08-.59-.15-1.19-.21-1.79-.34-.04-.67-.08-1.01-.12-2.15-.28-4.28-.66-6.38-1.19-.56.94-1.08,1.91-1.55,2.9-.2.43-.39.87-.57,1.31-.18.44-.33.89-.48,1.35-.08.27-.16.54-.22.81-.07.26-.12.52-.17.79-.03.16-.05.32-.07.49-.02.17-.03.34-.04.51,0,.11,0,.22,0,.34,0,.11,0,.22.01.34,0,.1.02.19.03.29,0,0,0,0,0,.01.71-.06,1.43.15,1.99.6.18.14.34.3.48.48.15.19.27.4.37.62.13.29.2.6.22.91.1,0,.21,0,.31,0,.13,0,.27,0,.4-.02.19-.02.37-.03.56-.06.21-.03.41-.07.62-.11.15-.03.31-.07.46-.1.19-.05.37-.1.55-.15.32-.09.64-.2.96-.31.49-.18.98-.37,1.46-.58.51-.22,1.01-.46,1.51-.71.4-.21.8-.42,1.19-.63ZM26.75,20.65c.19-1.02.41-2.04.66-3.04-.94-.56-1.91-1.08-2.9-1.55-.43-.2-.87-.39-1.31-.57-.44-.18-.89-.33-1.35-.48-.27-.08-.54-.16-.81-.22-.26-.07-.52-.12-.79-.17-.16-.03-.32-.05-.49-.07-.17-.02-.34-.03-.51-.04-.11,0-.22,0-.34,0-.11,0-.22,0-.34.01-.1,0-.19.02-.29.03-.12.02-.23.03-.35.06-.07.02-.14.03-.21.05-.07.02-.14.04-.21.06-.07.03-.13.05-.2.08-.07.03-.13.06-.19.09-.05.03-.1.06-.15.08-.05.03-.1.06-.15.1-.05.04-.09.07-.14.11-.04.03-.07.06-.11.09-.07.07-.14.14-.21.21-.07.09-.14.18-.2.27-.07.11-.13.22-.18.34-.06.13-.11.27-.15.41-.03.13-.06.26-.09.39-.02.11-.03.21-.05.32-.01.11-.02.21-.03.32,0,.13,0,.27,0,.4,0,.13,0,.27.02.4.02.19.03.37.06.56.03.21.07.41.11.62.03.15.07.31.1.46.05.19.1.37.15.55.09.32.2.64.31.96.18.49.37.98.58,1.46.22.51.46,1.01.71,1.51.21.4.42.8.63,1.19.12.21.24.43.36.64,1.85-.45,3.73-.78,5.62-1.03.59-.08,1.19-.15,1.78-.21.03-.28.07-.57.1-.85,0,0,0,0,0,0,0,0,0-.01,0-.02,0-.03,0-.07.01-.1,0,0,0-.01,0-.02.01-.09.02-.19.04-.28.14-1.03.3-2.05.49-3.07ZM29.98,25.37c-.83.04-1.65.1-2.46.17-.27.02-.54.05-.81.08-.11,1.09-.2,2.18-.27,3.27.08-.09.16-.17.24-.26,0,0,0,0,0-.01,1.07-1.11,2.17-2.2,3.3-3.25ZM28.18,40.91c.58.05,1.15.09,1.73.13-1.21-1.15-2.39-2.33-3.52-3.55.04.83.1,1.65.17,2.47.02.27.05.54.07.81.51.05,1.03.1,1.55.15ZM30.75,24.67c.98-.89,1.99-1.76,3.02-2.59-1.26-1.01-2.54-1.98-3.87-2.89-.44-.3-.89-.59-1.34-.88-.18-.11-.36-.23-.54-.34-.23.92-.43,1.85-.6,2.78-.26,1.39-.46,2.79-.63,4.19,1.29-.12,2.59-.21,3.89-.26h.08ZM32.83,45.01c.28-.21.56-.43.83-.65-.94-.77-1.85-1.57-2.75-2.39-.08-.08-.16-.15-.25-.23-1.32-.07-2.65-.17-3.96-.3.17,1.6.4,3.2.7,4.78.1.53.21,1.05.32,1.57.05.21.1.42.15.62,0,0,.01,0,.02-.01.79-.47,1.57-.98,2.33-1.5.89-.61,1.76-1.24,2.61-1.9ZM36.78,24.66c-.62-.56-1.24-1.1-1.86-1.63-.21-.17-.42-.35-.63-.52-.85.69-1.69,1.4-2.51,2.12.12,0,.24,0,.35,0h.01c1.54-.03,3.09-.02,4.63.03ZM35.39,42.95c.44-.37.88-.75,1.31-1.13-1.66.05-3.33.04-4.99-.02.6.54,1.22,1.08,1.84,1.6.22.18.43.36.65.54.4-.32.8-.65,1.2-.99ZM40.45,17.35c-.28-1.1-.61-2.18-.99-3.24-.16-.43-.32-.85-.51-1.27-.18-.42-.38-.84-.59-1.24-.26-.48-.54-.95-.85-1.4-.2-.27-.4-.53-.62-.78-.16-.17-.33-.34-.5-.5-.1.11-.2.22-.32.32-.09.08-.18.15-.28.21-.04.03-.09.06-.13.08-.02.01-.04.02-.07.04-.01,0-.03.02-.04.02,0,0,0,0-.01,0-.01,0-.02.01-.03.02-.03.02-.06.03-.1.05-.22.1-.45.17-.69.21-.15.03-.29.04-.44.04-.1,0-.21,0-.31-.01-.12-.01-.24-.03-.36-.06-.12-.03-.24-.06-.35-.11-.23-.09-.46-.21-.66-.35-.14-.11-.28-.22-.4-.35-.09.08-.18.17-.26.25-.1.11-.21.22-.3.33-.13.16-.26.32-.38.48-.13.18-.25.36-.37.54-.16.25-.31.5-.45.76-.15.28-.3.57-.44.86-.23.48-.44.96-.63,1.45-.2.49-.37.98-.54,1.48-.23.7-.44,1.4-.63,2.12,1.63.99,3.19,2.09,4.7,3.24.48.36.95.74,1.41,1.11.22-.18.45-.35.67-.53h0s.01-.01.01-.02c.03-.02.06-.04.08-.06,0,0,0,0,.01,0,.07-.06.15-.11.22-.17.82-.63,1.66-1.24,2.52-1.83.85-.59,1.73-1.15,2.62-1.68ZM40.11,49.86c.07-.23.13-.47.19-.7-.15-.09-.29-.18-.43-.27-.44-.28-.89-.56-1.32-.85-.88-.59-1.74-1.2-2.58-1.84-.6-.45-1.19-.92-1.78-1.39-.27.21-.53.42-.8.63-1.72,1.32-3.5,2.56-5.35,3.67.27,1.06.59,2.11.96,3.15.16.45.34.89.52,1.32.19.44.4.87.62,1.29.13.25.27.49.41.73.14.23.29.45.44.68.1.13.19.27.3.39.11.13.22.26.33.39.08.08.15.16.23.24.08.08.16.15.25.23.07.06.15.12.22.18.09.07.19.14.28.21.06.04.12.07.18.11.06.04.13.07.19.1.06.03.13.06.19.09s.13.05.2.08c.06.02.11.03.17.05.06.02.12.03.18.04.06,0,.12.02.17.03.05,0,.09,0,.14.01.1,0,.2,0,.3,0,.11-.01.22-.03.34-.05.12-.03.25-.07.37-.11.13-.05.26-.12.39-.18.11-.07.23-.14.34-.21.09-.06.18-.13.26-.2.08-.07.16-.14.24-.21.1-.09.19-.19.29-.28.09-.1.18-.19.27-.29.12-.14.24-.29.35-.44.12-.17.24-.34.36-.51.08-.13.17-.26.25-.4.1-.16.19-.33.29-.49.17-.29.31-.59.46-.89.22-.47.43-.95.62-1.44.2-.52.39-1.04.57-1.57.14-.43.27-.86.39-1.29ZM41.78,25.01c-.06-.58-.13-1.16-.21-1.75-.14-1.05-.31-2.1-.51-3.15-.09-.47-.19-.95-.29-1.42-.05-.22-.1-.44-.15-.66-.81.49-1.61,1-2.39,1.54-1.16.8-2.3,1.64-3.4,2.52,1,.83,1.98,1.69,2.93,2.57.02.02.04.04.06.05,1.32.06,2.64.17,3.96.3ZM41.58,42.56c.05-.35.09-.7.13-1.05-1.21.11-2.42.2-3.63.25-.11,0-.23,0-.34.01-.98.89-1.99,1.75-3.01,2.59.46.37.92.73,1.38,1.09.84.65,1.71,1.27,2.59,1.87.4.27.8.53,1.21.8.19.12.39.24.58.36v-.02c.23-.9.42-1.8.59-2.71.19-1.06.37-2.12.51-3.19ZM41.93,39.29c.05-.58.09-1.15.13-1.73-1.14,1.21-2.33,2.38-3.55,3.52.81-.04,1.62-.1,2.44-.16.28-.02.56-.05.84-.08.05-.51.1-1.03.15-1.54ZM42.09,28.96c-.04-.81-.1-1.62-.16-2.43-.02-.28-.05-.56-.08-.84-1.09-.11-2.18-.2-3.27-.27.08.08.17.16.25.24,0,0,0,0,0,0,1.11,1.07,2.2,2.16,3.25,3.29ZM42.19,33.78c.01-1.08,0-2.17-.03-3.25,0-.18-.01-.35-.02-.53-.25-.28-.51-.55-.76-.83-.4-.43-.81-.86-1.23-1.28-.75-.76-1.52-1.51-2.29-2.24-.1-.1-.21-.19-.31-.29-.38-.02-.75-.03-1.13-.04-.59-.02-1.18-.03-1.77-.04-1.07,0-2.14,0-3.21.04-.14,0-.28,0-.43.01-.28.25-.55.51-.83.76-.43.4-.86.81-1.28,1.23-.76.75-1.51,1.52-2.24,2.29-.1.1-.19.21-.29.31-.02.37-.03.75-.04,1.12-.02.59-.03,1.18-.04,1.77,0,1.07,0,2.14.04,3.21,0,.14,0,.28.01.42.62.68,1.25,1.35,1.89,2,.76.78,1.53,1.53,2.32,2.28.13.12.26.24.39.36.92.04,1.83.07,2.75.08,1.08.01,2.17,0,3.25-.03.17,0,.35-.01.52-.02.68-.62,1.35-1.25,2-1.89.78-.76,1.53-1.53,2.28-2.32.12-.13.24-.25.36-.38.04-.92.07-1.83.08-2.75ZM44.42,33.92c.18-.22.36-.43.54-.65-.69-.85-1.4-1.69-2.12-2.51.05,1.66.04,3.33-.02,5,.54-.6,1.08-1.22,1.61-1.84ZM48.78,39.76c.22-.05.44-.1.66-.15-.49-.81-1-1.61-1.54-2.39-.8-1.16-1.64-2.3-2.52-3.41-.77.94-1.57,1.85-2.39,2.75-.08.08-.15.17-.23.25-.07,1.32-.17,2.64-.3,3.96.58-.06,1.17-.13,1.75-.21,1.05-.14,2.1-.31,3.15-.51.47-.09.95-.19,1.42-.29ZM49.14,27.57c.12-.19.24-.38.36-.58-.92-.23-1.84-.43-2.77-.6-1.39-.26-2.79-.46-4.19-.63.11,1.21.2,2.42.25,3.63,0,.11,0,.22.01.33.89.98,1.76,1.99,2.59,3.02.37-.46.73-.92,1.09-1.38.65-.84,1.27-1.71,1.87-2.59.27-.4.54-.8.8-1.21ZM52.81,48.94c0-.14,0-.27,0-.41,0-.15-.01-.3-.02-.45-.02-.2-.04-.41-.07-.61-.03-.21-.07-.43-.12-.64-.07-.29-.13-.58-.22-.86-.09-.31-.19-.62-.29-.92-.18-.5-.37-.99-.58-1.48-.21-.48-.43-.96-.67-1.43-.33-.66-.68-1.3-1.05-1.94-.16.04-.33.08-.49.12-.51.12-1.02.23-1.54.33-1.04.2-2.08.38-3.13.52-.75.1-1.49.19-2.24.27-.04.34-.08.68-.12,1.01-.28,2.15-.66,4.28-1.19,6.38.97.58,1.97,1.11,2.99,1.59.41.19.83.37,1.25.54.43.17.86.32,1.3.46.52.16,1.05.29,1.59.39.33.05.66.09.99.11.24,0,.48,0,.72,0,.03-.23.09-.47.18-.68.16-.38.4-.73.7-1.01.32-.3.71-.51,1.12-.64.26-.08.54-.12.81-.11,0,0,0,0,0,0,.03-.18.04-.36.06-.54ZM52.95,18.26c0-.25,0-.49,0-.73-.02-.21-.05-.42-.09-.63-.03-.14-.07-.27-.11-.4-.05-.14-.11-.28-.18-.42-.04-.07-.08-.15-.13-.22-.04-.05-.07-.1-.11-.15-.04-.05-.08-.09-.11-.14-.06-.06-.12-.13-.19-.19-.1-.08-.2-.16-.3-.23-.09-.05-.18-.1-.27-.15-.06-.03-.13-.06-.19-.08-.08-.03-.15-.06-.23-.08-.08-.02-.16-.05-.24-.07-.1-.02-.19-.04-.29-.06-.18-.02-.36-.04-.54-.06-.14,0-.27,0-.41,0-.15,0-.3.01-.45.02-.2.02-.41.04-.61.07-.21.03-.43.07-.64.12-.29.07-.58.13-.86.22-.31.09-.62.19-.92.29-.5.18-.99.37-1.48.58-.48.21-.96.43-1.43.67-.66.33-1.3.69-1.94,1.05.04.16.08.33.12.49.12.51.23,1.02.33,1.54.2,1.04.38,2.08.52,3.13.1.75.19,1.49.27,2.24.29.03.57.07.86.1,0,0,0,0,0,0,0,0,.01,0,.02,0,.03,0,.07,0,.1.01,0,0,.01,0,.02,0,.09.01.19.02.28.04,1.03.14,2.05.3,3.07.49,1.02.19,2.03.41,3.04.66.58-.97,1.11-1.97,1.59-2.99.19-.41.37-.83.54-1.25.17-.43.32-.86.46-1.3.16-.52.29-1.05.39-1.59.05-.33.09-.66.11-.99ZM59.44,33.45c0-.09,0-.18,0-.27-.01-.13-.03-.25-.05-.38-.03-.1-.05-.2-.09-.3-.02-.07-.05-.13-.08-.19-.03-.07-.07-.15-.1-.22-.04-.07-.08-.15-.13-.22-.05-.08-.11-.16-.16-.25-.11-.14-.22-.28-.34-.42-.09-.1-.19-.2-.28-.29-.11-.1-.22-.21-.33-.3-.16-.13-.32-.26-.48-.38-.18-.13-.36-.25-.54-.37-.25-.16-.5-.31-.76-.45-.28-.15-.57-.3-.86-.44-.48-.23-.96-.44-1.45-.63-.49-.2-.98-.37-1.48-.54-.7-.23-1.41-.44-2.12-.63-.09.14-.18.29-.27.43-.28.44-.56.89-.85,1.32-.59.88-1.2,1.74-1.84,2.58-.45.6-.92,1.19-1.39,1.78.18.22.36.45.53.68,0,0,0,0,0,0,0,0,0,.01.01.01.02.03.04.06.06.08,0,0,0,0,0,.01.06.07.11.15.17.22.63.82,1.24,1.66,1.83,2.52.59.86,1.15,1.73,1.68,2.62,1.1-.28,2.18-.61,3.24-.99.43-.16.85-.32,1.27-.51.42-.18.84-.38,1.24-.59.48-.26.95-.54,1.4-.85.27-.2.53-.4.78-.62.18-.17.35-.34.52-.52.14-.16.26-.33.38-.5.07-.12.14-.24.21-.37.06-.14.12-.28.17-.42.02-.08.04-.16.06-.25.01-.06.02-.12.03-.19,0-.06.01-.12.02-.18ZM60.09,32.99c.01.12.02.25.02.37,0,.14-.01.28-.03.42-.02.13-.05.26-.08.38-.04.13-.08.26-.13.38-.1.23-.21.46-.35.67-.13.19-.27.38-.42.56-.33.39-.73.73-1.13,1.05-.4.31-.83.58-1.27.83-.92.53-1.9.96-2.89,1.34-.96.37-1.95.67-2.94.94-.13.03-.25.07-.38.1.43.75.83,1.51,1.21,2.28.46.96.88,1.95,1.2,2.97.16.52.3,1.04.41,1.58.1.5.16,1.01.19,1.53.01.26,0,.52-.02.78,0,.13-.03.26-.05.4.38.1.75.27,1.06.52.18.14.34.3.48.48.15.19.27.4.37.62.2.44.26.94.21,1.43-.05.47-.22.93-.49,1.31-.14.2-.3.37-.48.53-.09.08-.18.15-.28.21-.04.03-.09.06-.13.08-.02.01-.04.02-.07.04-.01,0-.03.02-.04.02,0,0,0,0-.01,0-.01,0-.02.01-.03.02-.03.02-.06.03-.1.05-.22.1-.45.17-.69.21-.15.03-.29.04-.44.04-.1,0-.21,0-.31-.01-.12-.01-.24-.03-.36-.06-.12-.03-.24-.06-.35-.11-.23-.09-.46-.21-.66-.35-.39-.28-.7-.65-.9-1.09-.02-.04-.04-.08-.05-.12,0,0,0,0,0,0-.1-.25-.16-.51-.19-.77-.49.03-.98,0-1.46-.07-.5-.06-1-.18-1.48-.31-1.03-.28-2.02-.67-2.99-1.1-.94-.42-1.85-.91-2.75-1.42-.11-.06-.23-.13-.34-.2-.24.87-.5,1.73-.8,2.58-.35,1-.77,1.98-1.26,2.93-.11.22-.23.43-.35.64-.14.23-.28.47-.43.69-.08.11-.15.23-.23.34-.09.13-.19.25-.28.37-.16.2-.33.4-.51.58-.19.19-.38.38-.59.55-.1.08-.21.17-.32.24-.11.07-.23.14-.34.21-.11.06-.22.11-.33.17-.11.05-.23.1-.35.13-.26.08-.52.13-.8.15h-.01c-.25.01-.51,0-.76-.06-.13-.03-.26-.06-.38-.1-.07-.02-.13-.05-.2-.07-.07-.03-.14-.06-.2-.09-.25-.11-.48-.27-.71-.43-.11-.07-.21-.16-.31-.25-.1-.08-.19-.16-.28-.25-.2-.2-.39-.4-.57-.62-.16-.2-.32-.4-.46-.61-.31-.45-.59-.91-.85-1.39-.5-.92-.89-1.89-1.25-2.87-.34-.95-.63-1.91-.88-2.89-.78.45-1.58.87-2.39,1.26-.96.46-1.95.86-2.96,1.18-.23.07-.47.14-.7.2-.27.07-.53.13-.8.18-.13.03-.27.05-.4.07-.15.02-.31.04-.46.06-.26.03-.52.05-.77.05-.12,0-.23,0-.35,0-.07.41-.23.82-.47,1.16-.14.2-.3.37-.48.53-.09.08-.18.15-.28.21-.04.03-.09.06-.13.08-.02.01-.04.02-.07.04-.01,0-.03.02-.04.02,0,0,0,0-.01,0-.01,0-.02.01-.03.02-.03.02-.06.03-.1.05-.22.1-.45.17-.69.21-.15.03-.29.04-.44.04-.1,0-.21,0-.31-.01-.12-.01-.24-.03-.36-.06-.12-.03-.24-.06-.35-.11-.23-.09-.46-.21-.66-.35-.39-.28-.7-.65-.9-1.09-.02-.04-.04-.08-.05-.12,0,0,0,0,0,0-.12-.29-.19-.6-.21-.92-.03-.41.05-.83.2-1.21.16-.38.4-.73.7-1.01.29-.27.64-.47,1.02-.6-.01-.1-.02-.21-.03-.31-.01-.13-.02-.25-.02-.38,0-.28.01-.56.03-.84.02-.25.06-.51.1-.76.1-.54.23-1.06.39-1.58.3-1,.71-1.97,1.15-2.91.43-.91.91-1.8,1.42-2.67-.87-.24-1.73-.5-2.58-.8-1-.35-1.98-.77-2.93-1.26-.22-.11-.43-.23-.64-.35-.23-.14-.47-.28-.69-.43-.11-.08-.23-.15-.34-.23-.13-.09-.25-.19-.37-.28-.2-.16-.4-.33-.58-.51-.19-.19-.38-.38-.55-.59-.08-.1-.17-.21-.24-.32-.07-.11-.14-.23-.21-.34-.06-.11-.11-.22-.17-.33-.05-.11-.1-.23-.13-.35-.08-.26-.13-.52-.15-.8h0c-.01-.27,0-.52.06-.77.03-.13.06-.26.1-.38.02-.07.05-.13.07-.2.03-.07.06-.14.09-.2.11-.25.27-.48.43-.71.07-.11.16-.21.25-.31.08-.1.16-.19.25-.28.2-.2.4-.39.62-.57.2-.16.4-.32.61-.46.45-.31.91-.59,1.39-.85.92-.5,1.89-.89,2.87-1.25.95-.34,1.91-.63,2.89-.88-.45-.78-.87-1.58-1.26-2.39-.46-.96-.86-1.95-1.18-2.96-.07-.23-.14-.47-.2-.7-.07-.27-.13-.53-.18-.8-.03-.13-.05-.27-.07-.4-.02-.15-.04-.31-.06-.46-.03-.26-.05-.52-.05-.77,0-.27,0-.54.03-.81.02-.13.03-.27.06-.4.03-.13.06-.26.09-.39.03-.12.08-.24.12-.35.04-.12.1-.23.15-.34.13-.24.28-.47.46-.67,0,0,0,0,0,0,.17-.19.37-.36.58-.49.11-.07.22-.14.34-.2.06-.03.13-.06.19-.09.07-.03.14-.05.21-.08.26-.1.53-.15.81-.2.13-.02.26-.03.39-.04.13-.01.25-.02.38-.02.28,0,.56.01.84.03.25.02.51.06.76.1.54.1,1.06.23,1.58.39,1,.3,1.97.71,2.91,1.15.91.43,1.8.91,2.67,1.42.23-.83.48-1.65.76-2.47.35-1.01.76-2,1.25-2.95.25-.48.52-.95.82-1.41.28-.43.6-.83.95-1.21.13-.15.28-.28.43-.42-.04-.06-.07-.13-.1-.2-.02-.04-.04-.08-.05-.12,0,0,0,0,0,0-.12-.29-.19-.6-.21-.92-.03-.41.05-.83.2-1.21.16-.38.4-.73.7-1.01.32-.3.71-.51,1.12-.64.86-.26,1.84-.07,2.54.49.18.14.34.3.48.48.15.19.27.4.37.62.2.44.26.94.21,1.43-.03.33-.13.67-.29.97.01,0,.02.02.03.03.39.33.73.73,1.05,1.13.31.4.58.83.83,1.27.53.92.96,1.9,1.34,2.89.37.96.67,1.95.94,2.94.03.13.07.25.1.38.75-.43,1.51-.83,2.28-1.21.96-.46,1.95-.88,2.97-1.2.52-.16,1.04-.3,1.58-.41.5-.1,1.01-.16,1.53-.19.26-.01.52,0,.78.02.27.02.53.07.79.13.25.06.49.15.73.26.12.05.23.12.34.18.1.06.21.13.3.21.1.08.19.16.28.25.1.1.19.21.28.32.08.1.15.22.21.33.07.12.13.24.18.36.09.24.17.48.22.73.05.23.08.46.1.69.04.51,0,1.03-.06,1.54-.06.5-.18,1-.31,1.48-.28,1.03-.67,2.02-1.1,2.99-.42.94-.91,1.85-1.42,2.75-.06.11-.13.23-.2.34.83.23,1.66.48,2.47.76,1.01.35,2,.76,2.95,1.25.48.25.95.52,1.41.82.43.28.83.6,1.21.95.19.17.37.37.54.56.18.2.33.43.47.65.14.22.24.45.33.69.05.12.08.24.11.37.03.12.05.24.06.36Z"/>
      <path class="cls-3" d="M32.42,7.6c-.07-.06-.11-.13-.13-.22-.11-.56,0-1.17.35-1.62.18-.23.43-.41.7-.52.33-.13.7-.16,1.05-.1.18.03.31.19.28.38-.02.18-.2.31-.38.28-.05,0-.1-.01-.15-.02-.06,0-.13,0-.19,0-.05,0-.11.01-.16.02-.05.01-.1.03-.15.04-.05.02-.09.04-.14.06-.04.02-.08.04-.12.07-.04.03-.07.05-.1.08-.03.03-.06.06-.09.09-.03.03-.06.07-.08.11-.03.04-.05.08-.07.12-.02.04-.04.09-.06.14-.02.05-.03.11-.04.16-.01.06-.02.12-.02.18,0,.07,0,.14,0,.21,0,.08.02.16.03.24.02.08-.02.18-.07.25-.05.07-.13.12-.22.13-.01,0-.03,0-.04,0-.07,0-.15-.02-.2-.07Z"/>
      <path class="cls-3" d="M30.53,33.41c.05-.68.19-1.37.5-1.99.2-.41.47-.79.8-1.11.32-.3.69-.54,1.1-.69.34-.12.7-.19,1.07-.2.33,0,.67.04.99.12,0,0,0,0,0,0,.01,0,.02,0,.03,0,.18.05.28.24.23.41-.05.18-.24.28-.41.23-.07-.02-.14-.04-.21-.05-.13-.03-.27-.04-.4-.06-.12,0-.24,0-.36,0-.11,0-.23.02-.34.04-.11.02-.22.05-.33.09-.1.04-.2.08-.29.12-.1.05-.19.11-.28.17-.09.07-.18.13-.27.21-.09.08-.17.16-.25.25-.09.1-.17.2-.24.31-.08.12-.16.25-.23.39-.07.15-.14.3-.19.46-.06.19-.12.38-.16.58-.05.23-.08.46-.09.69,0,0,0,0,0,0,0,0,0,0,0,0h0c0,.09-.03.17-.1.24-.06.06-.15.1-.24.1-.17,0-.34-.15-.33-.33Z"/>
      <path class="cls-3" d="M30.83,34.78c0-.18.15-.33.33-.33s.33.15.33.33-.15.33-.33.33-.33-.15-.33-.33Z"/>
      <path class="cls-3" d="M13.89,52.94s0,0,0,0c0,0,0,0,0-.01-.12-.3-.19-.62-.17-.94.02-.34.11-.68.28-.98.18-.31.44-.58.75-.77.33-.2.71-.3,1.09-.3.33,0,.65.08.92.21,0,0,.02,0,.03.01,0,0,0,0,.01,0h0s0,0,0,0c.16.08.21.3.13.46-.04.08-.12.13-.2.16-.09.02-.17.01-.22-.02-.06-.03-.13-.06-.2-.08-.06-.02-.13-.04-.19-.05-.06-.01-.13-.02-.19-.02-.06,0-.13,0-.19,0-.07,0-.13.01-.2.03-.07.01-.13.03-.19.05-.06.02-.12.05-.18.08-.06.03-.11.06-.16.1-.05.04-.1.08-.15.12-.05.04-.09.09-.13.14-.04.05-.08.1-.11.15-.03.05-.06.1-.09.16-.03.06-.05.11-.07.17-.02.06-.04.13-.05.19-.01.07-.02.13-.02.2,0,.06,0,.13,0,.19,0,.07.02.13.03.2.01.06.03.13.05.19.01.04.03.07.04.11.07.17,0,.37-.17.44-.04.02-.09.03-.13.03-.13,0-.25-.08-.31-.2Z"/>
      <path class="cls-3" d="M50.81,53.14c-.17-.52-.21-1.09-.03-1.62.15-.44.45-.81.86-1.04.35-.2.77-.27,1.16-.23h0c.09.01.16.04.22.11.06.06.09.15.09.24,0,.09-.04.17-.11.23-.06.06-.16.1-.24.09,0,0-.01,0-.02,0-.07,0-.13,0-.2,0-.06,0-.13,0-.19.02-.06.01-.12.02-.18.04-.05.02-.1.03-.14.05-.05.02-.09.05-.13.07-.04.03-.08.05-.12.08-.04.03-.07.07-.11.1-.03.04-.07.08-.1.12-.03.04-.06.09-.08.13-.03.05-.05.1-.07.16-.02.06-.04.12-.06.18-.02.07-.03.14-.04.21,0,.08-.01.16,0,.24,0,.09.01.17.02.26.02.09.04.19.07.28,0,.02.01.03.02.05.03.09.03.18,0,.26-.04.08-.1.14-.18.17-.04.01-.08.02-.12.02-.14,0-.27-.08-.32-.21Z"/>
    </g>
  </g>
  <g>
    <circle class="cls-10" cx="158.84" cy="33.83" r="33.83"/>
    <g>
      <path class="cls-3" d="M180.94,31.14c.49.58-.25,1.45-.78.88-.33-.34-.65-.67-.98-1.01-3.53-3.55-7.11-7.05-10.85-10.32-1.71-1.37-5.32-4.91-7.32-4.84-1.15.01-1.55,1.77-.58,2.45.59.41,1.31.26,1.97.28,2.31.1,4.16,1.98,5.87,3.53,3.34,3.18,6.37,6.73,9.36,10.32h-1.52c-3.07-3.67-6.21-7.29-9.71-10.43-1.28-1.08-2.73-2.32-4.41-2.17-1.33.13-2.7-.39-3.14-1.94-.23-1.1.16-2.4,1.06-2.95,2.34-1.38,5.63,2.01,7.52,3.43,4,3.34,7.76,7.03,11.5,10.72.68.67,1.34,1.37,2.01,2.05Z"/>
      <path class="cls-3" d="M156.91,14.93c.9.55,1.3,1.86,1.06,2.95-.44,1.55-1.82,2.07-3.14,1.94-1.68-.14-3.13,1.09-4.41,2.17-3.51,3.14-6.64,6.76-9.71,10.43h-1.52c2.99-3.59,6.03-7.14,9.36-10.32,1.71-1.55,3.56-3.44,5.87-3.53.66-.01,1.38.13,1.97-.28.97-.67.57-2.44-.58-2.45-1.99-.07-5.6,3.47-7.32,4.84-3.74,3.27-7.32,6.77-10.85,10.32-.33.34-.65.67-.98,1.01-.53.57-1.27-.3-.78-.88.67-.69,1.33-1.38,2.01-2.05,3.74-3.7,7.5-7.38,11.5-10.72,1.89-1.42,5.18-4.81,7.52-3.43Z"/>
      <path class="cls-3" d="M180.57,32.43h-44.44c-.76,0-.79-1.24,0-1.25h44.44c.32,0,.6.28.6.62s-.27.62-.6.62Z"/>
      <path class="cls-3" d="M171.33,48.58c-2.99-.29-5.83-1.59-8.06-3.55-.77-.65-1.46-1.33-2.28-1.89-.81-.54-1.77-.93-2.76-.86-.77,0-.86-1.14-.09-1.24.7-.06,1.41.08,2.08.3,2.61,1.01,4.19,3.53,6.73,4.68,3.31,1.62,7.99,2.25,10.72-.71,2.28-2.49,2.31-6.04,2.33-9.21,0-.9-.01-1.8-.03-2.7.1-.68-.39-2.12.63-2.19.35,0,.64.28.64.62,0,1.79.05,3.59.03,5.38.11,6.35-2.54,12.01-9.94,11.35Z"/>
      <path class="cls-3" d="M145.48,48.58c2.99-.29,5.83-1.59,8.06-3.55.77-.65,1.46-1.33,2.28-1.89.81-.54,1.77-.93,2.76-.86.77,0,.86-1.14.09-1.24-.7-.06-1.41.08-2.08.3-2.61,1.01-4.19,3.53-6.73,4.68-3.31,1.62-7.99,2.25-10.72-.71-2.28-2.49-2.31-6.04-2.33-9.21,0-.9.01-1.8.03-2.7-.1-.68.39-2.12-.63-2.19-.35,0-.64.28-.64.62,0,1.79-.05,3.59-.03,5.38-.11,6.35,2.54,12.01,9.94,11.35Z"/>
      <path class="cls-3" d="M144.33,33.93c.69.14,1.24.9.98,1.7-.35.94-1.37,1.1-2.14,1.29-.78.18-1.69.59-1.81,1.61-.07.5-.08,1.03-.31,1.48-.35.79-1.33,1-1.85.31-.59-.75-.57-1.86-.51-2.8.1-1.92,1.25-3.12,2.85-3.5.91-.22,1.88-.32,2.79-.09Z"/>
    </g>
  </g>
  <path class="cls-8" d="M793.78,307.24c-5.32,1-10.61-1.93-12.55-6.98-2.78-7.22-8.25-17.77-18.65-27.45-17.33-16.13-41.99-22.89-63.67-18.99-23.06,4.16-37.92,13.54-50.81,31.03-7.27,9.87-10.24,17.53-11.28,20.83-.32,1.01-1.33,1.64-2.39,1.49h0c-1.31-.19-2.15-1.49-1.79-2.76,1.43-4.93,5.42-16.6,13.8-28.09,9.98-13.68,28-30.83,57.38-36.9,38.21-7.9,68.57,10.63,82.78,26.87,7.68,8.78,12.57,18.32,15.55,25.72,2.65,6.57-1.41,13.92-8.37,15.23h0Z"/>
  <g>
    <circle class="cls-5" cx="667.23" cy="33.83" r="33.83"/>
    <path class="cls-4" d="M661.47,15.52h.51c.49,0,.74-.1.74-.3l-.61.3c3.72,0,6.08,1.14,7.06,3.43.1.15.19.57.25,1.24-.51,4.59-1.38,7.61-2.62,9.06-.15.29-.23.35-.23.18,1.61,0,3.06,1.82,4.34,5.46.49,1.44.74,2.73.74,3.88,0,5.64-1.41,9.45-4.24,11.43-.98.96-2.07,1.52-3.28,1.65-.14.08-.35.13-.63.13h-.1c-.36,0-.7-.26-1.04-.79v-.33c0-.49.91-.97,2.72-1.45,2.12-1.83,3.17-3.1,3.17-3.81.75-1.88,1.12-4.12,1.12-6.73v-.1c0-1.96-.71-4.11-2.13-6.45-.63-.64-1.27-.96-1.93-.96-.14.07-.35.1-.63.1-.58-.25-.91-.54-.99-.86v-.51c1.62-2.05,2.71-4.72,3.25-8.02.14-1.12.2-1.74.2-1.88,0-.96-.87-1.79-2.62-2.46-.68-.12-1.22-.18-1.62-.18-.02,0-.57.04-1.65.13l-.61-.81v-.43c0-.27.28-.58.84-.91Z"/>
  </g>
  <g>
    <circle class="cls-6" cx="667.23" cy="155.13" r="33.83"/>
    <g>
      <path class="cls-4" d="M655.61,136.47h.56c1.81,0,2.97,5.92,3.48,17.75.54,7.04.81,12.26.81,15.67v3.35c-.3.61-1,.91-2.08.91,0-.25-.11-.43-.33-.53l.13-1.52v-2.41c-.73-18.74-1.57-29.09-2.51-31.05l.08.38c-.52.32-1.03,1.08-1.52,2.26l-.91.18h-.18c-.36,0-.71-.28-1.07-.84.24-1.13,1.42-2.51,3.55-4.14Z"/>
      <path class="cls-4" d="M673.68,137.69c2.45,0,4.2,1.32,5.23,3.96l.1.79c0,2.4-.96,5.71-2.87,9.93-1.47,4.77-2.68,9.56-3.63,14.35-.2,1.19-.59,2.92-1.17,5.21h-.74c3.32-.47,5.33-.71,6.04-.71h.41c.36,0,.7.26,1.04.79v.43c0,.29-.25.56-.76.81h-.69c-.98,0-3.35.33-7.11.99l-.63-.86v-.43c0-.36.64-3.46,1.93-9.32,1.69-7.65,3.33-13.06,4.9-16.22.66-2.05.99-3.66.99-4.82s-.78-2.13-2.34-2.74c-.14,0-.36-.03-.66-.08-2.78.61-4.16,1.2-4.16,1.78-.39.41-.73,1-1.02,1.78l-.56.28c-.78,0-1.29-.28-1.52-.84v-.58c.96-1.9,2.18-3.11,3.66-3.63,1.61-.49,2.79-.77,3.55-.84Z"/>
    </g>
  </g>
  <g>
    <circle class="cls-1" cx="540.71" cy="277.8" r="33.83"/>
    <path class="cls-4" d="M540.25,261.39h.13c1.46.1,2.29.51,2.51,1.22h-.56l.3-.25h.56c1.08,0,1.8,7.94,2.16,23.82.05,0,.16,2,.33,5.99h.1l-.13-.33v.81c0,.44.03,1.1.1,1.98-.22.61-.53.96-.94,1.07h-.41c-.76,0-1.14-2.51-1.14-7.54-.14-1.9-.33-6.8-.58-14.7h.89c-.91,2.76-2.6,4.14-5.05,4.14s-3.82-1.74-4.19-5.23c-.07-1.34-.14-2.23-.2-2.67,0-2.81,1.08-5.28,3.22-7.41.88-.59,1.84-.89,2.89-.89ZM536.42,269.54c.22,3.47.66,5.21,1.32,5.21,0,.27.29.47.86.61,1.52,0,2.61-1.32,3.25-3.96.27-1.12.41-1.96.41-2.54l-.28-4.01h-.28c-.54-.81-.96-1.22-1.24-1.22h-.1c-1.64,0-2.83,1.29-3.55,3.86-.12.29-.25.97-.38,2.06Z"/>
  </g>
  <g>
    <circle class="cls-11" cx="414.19" cy="277.8" r="33.83"/>
    <path class="cls-4" d="M413.41,261.67c.36,0,.7.26,1.04.79v.53l-1.35,1.12c-.61.78-1.29,2.21-2.03,4.29-.86,2.88-1.29,4.43-1.29,4.65.1-.07.53-.1,1.29-.1h.2c2.01,0,4.01,1.74,5.99,5.23.96,2.93,1.45,5.72,1.45,8.38,0,2.1-.72,4.13-2.16,6.09-.59.54-1.2.81-1.83.81h-.51c-2.37,0-4.51-3.36-6.42-10.08-.27-1.76-.47-3.72-.61-5.87,0-4.65,1.24-9.4,3.73-14.24.8-1.07,1.62-1.6,2.49-1.6ZM409.48,277.64c0,2.89.6,6.02,1.8,9.37,1.37,3.01,2.42,4.52,3.15,4.52.81,0,1.48-1.6,2.01-4.8,0-4.62-.97-8.03-2.92-10.23-.93-1.02-1.81-1.52-2.64-1.52-.69,0-1.16.89-1.4,2.67Z"/>
  </g>
  <g>
    <circle class="cls-6" cx="414.19" cy="155.13" r="33.83"/>
    <path class="cls-4" d="M412.23,136.23h.56c1.81,0,2.97,5.92,3.48,17.75.54,7.04.81,12.26.81,15.67v3.35c-.3.61-1,.91-2.08.91,0-.25-.11-.43-.33-.53l.13-1.52v-2.41c-.73-18.74-1.57-29.09-2.51-31.05l.08.38c-.52.32-1.03,1.08-1.52,2.26l-.91.18h-.18c-.36,0-.71-.28-1.07-.84.24-1.13,1.42-2.51,3.55-4.14Z"/>
  </g>
  <g>
    <circle class="cls-1" cx="540.71" cy="155.13" r="33.83"/>
    <path class="cls-4" d="M541.74,137.22c2.45,0,4.2,1.32,5.23,3.96l.1.79c0,2.4-.96,5.71-2.87,9.93-1.47,4.77-2.68,9.56-3.63,14.35-.2,1.19-.59,2.92-1.17,5.21h-.74c3.32-.47,5.33-.71,6.04-.71h.41c.36,0,.7.26,1.04.79v.43c0,.29-.25.56-.76.81h-.69c-.98,0-3.35.33-7.11.99l-.63-.86v-.43c0-.36.64-3.46,1.93-9.32,1.69-7.65,3.33-13.06,4.9-16.22.66-2.05.99-3.66.99-4.82s-.78-2.13-2.34-2.74c-.14,0-.36-.03-.66-.08-2.78.61-4.16,1.2-4.16,1.78-.39.41-.73,1-1.02,1.78l-.56.28c-.78,0-1.29-.28-1.52-.84v-.58c.96-1.9,2.18-3.11,3.66-3.63,1.61-.49,2.79-.77,3.55-.84Z"/>
  </g>
  <g>
    <circle class="cls-10" cx="414.19" cy="33.83" r="33.83"/>
    <path class="cls-4" d="M412.1,16.89c.42.46.63.8.63,1.02,0,.75-.37,5.19-1.12,13.33v.69c0,.34.05.98.15,1.93h-.53c1.02-.14,1.88-.2,2.59-.2h1.7c0-2.91-.34-7.25-1.02-13.03.2-.68.55-1.07,1.04-1.19h.3c.36,0,.7.26,1.04.79v.23c0,.22.08.19.25-.1-.02,0,.19,4.43.63,13.28.29.03.43.28.43.74v.43l-.28.41c.39,3.94.72,9.23.99,15.87l-1.07.63c-.88-.3-1.32-.77-1.32-1.4v-.2c0-.41-.07-.61-.2-.61l.2.41c0-3.49-.29-8.23-.86-14.22h-2.26c-.61,0-1.46.14-2.54.41h-.3c-.68,0-1.09-1.39-1.24-4.16,0-.96.37-5.43,1.12-13.41l-.13-.86c.54-.51,1.13-.76,1.78-.76Z"/>
  </g>
</svg>